<?xml version="1.0" encoding="UTF-8"?>
<svg width="24px" height="24px" viewBox="0 0 24 24" version="1.1" xmlns="http://www.w3.org/2000/svg" xmlns:xlink="http://www.w3.org/1999/xlink">
    <g id="Stockholm-icons-/-Home-/-Clock" stroke="none" stroke-width="1" fill="none" fill-rule="evenodd">
        <rect id="bound" x="0" y="0" width="24" height="24"></rect>
        <path d="M 12 21 C 7.029 21 3 16.971 3 12 C 3 7.029 7.029 3 12 3 C 16.971 3 21 7.029 21 12 C 21 16.971 16.971 21 12 21 Z" id="Mask" fill="currentColor" opacity="0.3"></path>
        <path d="M 11.963 6.5 L 12.048 6.5 C 12.304 6.5 12.519 6.695 12.545 6.95 L 13 11.5 L 16.248 13.356 C 16.404 13.445 16.5 13.611 16.5 13.79 L 16.5 14 C 16.5 14.211 16.329 14.382 16.118 14.382 C 16.084 14.382 16.05 14.377 16.018 14.368 L 11.399 13.109 C 11.167 13.046 11.013 12.827 11.032 12.588 L 11.464 6.962 C 11.485 6.701 11.702 6.5 11.963 6.5 Z" id="Path-107" fill="currentColor"></path>
    </g>
</svg>
