<?xml version="1.0" encoding="UTF-8"?>
<svg width="24px" height="24px" viewBox="0 0 24 24" version="1.1" xmlns="http://www.w3.org/2000/svg" xmlns:xlink="http://www.w3.org/1999/xlink">
    <path d="M 12.024 21 C 7.343 21 3.548 17.205 3.548 12.524 C 3.548 7.842 7.343 4.047 12.024 4.047 C 16.706 4.047 20.501 7.842 20.501 12.524 C 20.501 17.205 16.706 21 12.024 21 Z" fill="currentColor" opacity="0.3"></path>
    <path d="M 11.985 6.696 L 12.063 6.696 C 12.34 6.696 12.57 6.909 12.592 7.185 L 13.04 13.013 C 13.062 13.304 12.844 13.559 12.552 13.582 C 12.539 13.583 12.525 13.583 12.512 13.583 L 11.537 13.583 C 11.244 13.583 11.007 13.346 11.007 13.053 C 11.007 13.04 11.008 13.026 11.009 13.013 L 11.457 7.185 C 11.478 6.909 11.708 6.696 11.985 6.696 Z M 17.015 5.671 L 17.89 4.796 C 18.303 4.382 18.974 4.382 19.388 4.796 C 19.802 5.21 19.802 5.881 19.388 6.295 L 18.559 7.124 C 18.107 6.578 17.588 6.089 17.015 5.671 Z M 13.084 4.113 C 12.737 4.069 12.383 4.047 12.024 4.047 C 11.665 4.047 11.312 4.069 10.965 4.113 L 10.965 2.987 L 9.905 2.987 C 9.32 2.987 8.846 2.513 8.846 1.928 C 8.846 1.343 9.32 0.868 9.905 0.868 L 14.143 0.868 C 14.729 0.868 15.203 1.343 15.203 1.928 C 15.203 2.513 14.729 2.987 14.143 2.987 L 13.084 2.987 Z" fill="currentColor"></path>
</svg>
