<svg viewBox="130 311 245 167" xmlns="http://www.w3.org/2000/svg">
  <defs></defs>
  <path d="M 162.35 344.19 L 324.939 322.492 L 287.92 433.55 L 194.03 448.26 L 162.35 344.19 Z" style="fill: rgb(73, 75, 74);"></path>
  <path d="M 156.32 393.58 L 321.1 369.45 L 315.82 416.21 L 160.47 438.83 L 156.32 393.58 Z" style="fill: rgb(251, 176, 23);"></path>
  <path d="M 186.756 417.084 L 178.365 418.318 L 176.51 423.372 L 172.033 424.031 L 180.892 401.094 L 185.731 400.382 L 192.284 421.052 L 188.152 421.66 L 186.756 417.084 Z M 185.704 413.637 L 183.222 405.297 L 179.363 414.57 L 185.704 413.637 Z M 211.868 418.171 L 207.81 418.768 L 199.996 405.382 L 199.114 420.047 L 195.055 420.644 L 196.361 398.819 L 200.434 398.22 L 208.252 411.546 L 209.129 396.941 L 213.174 396.346 L 211.868 418.171 Z M 226.948 415.953 L 222.6 416.593 L 223.106 408.093 L 215.369 396.023 L 220.005 395.341 L 223.514 400.934 C 224.352 402.277 224.923 403.251 225.228 403.855 C 225.492 403.176 225.808 402.451 226.176 401.678 L 227.772 398.581 L 230.131 393.852 L 235.187 393.108 L 227.441 407.867 L 226.948 415.953 Z M 245.249 413.261 L 240.887 413.903 L 241.991 395.723 L 235.78 396.636 L 235.996 392.989 L 252.679 390.535 L 252.463 394.182 L 246.338 395.083 L 245.249 413.261 Z M 253.916 411.986 L 255.235 390.159 L 259.583 389.519 L 258.278 411.345 L 253.916 411.986 Z M 274.499 408.959 L 270.367 409.567 L 266.999 391.985 L 266.237 410.174 L 262.308 410.752 L 263.613 388.927 L 269.824 388.013 L 272.656 402.752 L 277.696 386.855 L 283.98 385.931 L 282.659 407.759 L 278.688 408.343 L 280.279 390.165 L 274.499 408.959 Z M 286.963 407.126 L 288.269 385.3 L 303.969 382.991 L 303.753 386.638 L 292.414 388.306 L 292.111 393.265 L 303.074 391.652 L 302.858 395.299 L 291.895 396.911 L 291.412 402.856 L 303.732 401.043 L 303.502 404.693 L 286.963 407.126 Z" style="fill: rgb(70, 74, 83);"></path>
  <path d="M 211.586 350.138 L 216.31 349.479 L 215.336 364.063 C 215.073 367.928 214.396 370.615 213.306 372.123 C 212.214 373.631 210.344 374.57 207.695 374.94 C 205.451 375.253 203.697 374.972 202.436 374.096 C 201.175 373.22 200.42 371.894 200.172 370.117 C 200.12 369.745 200.089 369.326 200.078 368.861 L 204.463 367.761 C 204.465 368.238 204.488 368.63 204.531 368.939 C 204.635 369.684 204.927 370.223 205.407 370.557 C 205.888 370.891 206.57 370.997 207.453 370.873 C 208.687 370.701 209.503 370.218 209.903 369.426 C 210.198 368.82 210.432 367.198 210.606 364.56 L 211.586 350.138 Z M 222.008 363.179 C 221.815 361.796 221.819 360.31 222.021 358.72 C 222.276 356.591 222.854 354.693 223.755 353.027 C 224.656 351.361 225.891 349.971 227.46 348.857 C 229.029 347.743 230.893 347.035 233.053 346.734 C 235.947 346.33 238.411 346.902 240.444 348.451 C 242.477 350 243.701 352.259 244.115 355.228 C 244.46 357.696 244.213 360.165 243.376 362.636 C 242.539 365.106 241.212 367.103 239.397 368.626 C 237.581 370.148 235.418 371.085 232.907 371.435 C 230.726 371.74 228.827 371.501 227.21 370.717 C 225.593 369.935 224.374 368.855 223.553 367.478 C 222.731 366.102 222.216 364.669 222.008 363.179 Z M 226.751 362.419 C 226.975 364.026 227.652 365.303 228.782 366.252 C 229.913 367.2 231.276 367.563 232.872 367.34 C 234.17 367.159 235.358 366.556 236.435 365.533 C 237.512 364.509 238.32 363.073 238.859 361.225 C 239.399 359.376 239.553 357.627 239.323 355.979 C 239.066 354.138 238.369 352.762 237.233 351.853 C 236.098 350.943 234.764 350.595 233.232 350.809 C 230.88 351.138 229.121 352.5 227.954 354.897 C 226.787 357.295 226.385 359.802 226.751 362.419 Z M 249.266 368.728 L 250.898 344.649 L 255.702 343.978 L 254.085 368.055 L 249.266 368.728 Z M 279.534 364.501 L 275.05 365.127 L 266.535 350.29 L 265.443 366.469 L 260.958 367.095 L 262.575 343.018 L 267.075 342.39 L 275.597 357.16 L 276.682 341.048 L 281.151 340.424 L 279.534 364.501 Z" style="fill: rgb(255, 255, 255); stroke: rgb(255, 255, 255);"></path>
  <path d="M 345.23 430.23 L 335.25 439.87 L 320.87 420.01 L 345.23 430.23 Z" style="fill: rgb(83, 89, 99);"></path>
  <path d="M 324.39 442.09 L 316.38 443.93 L 315.15 429.45 L 324.39 442.09 Z" style="fill: rgb(251, 176, 23);"></path>
  <path d="M 342.97 412.66 L 340.33 418.78 L 330.23 412.64 L 342.97 412.66 Z" style="fill: rgb(251, 176, 23);"></path>
  <path d="M 131.03 331.56 L 140.12 321.08 L 156.19 339.6 L 131.03 331.56 Z" style="fill: rgb(83, 89, 99);"></path>
  <path d="M 150.74 317.91 L 158.56 315.37 L 161.05 329.69 L 150.74 317.91 Z" style="fill: rgb(251, 176, 23);"></path>
  <path d="M 134.82 348.88 L 136.91 342.54 L 147.51 347.77 L 134.82 348.88 Z" style="fill: rgb(251, 176, 23);"></path>
  <path style="fill: rgb(73, 75, 74);" d="M 355.79 312.01 L 366.35 316.54 L 373.89 327.1 L 335.05 339.54 L 355.79 312.01 Z"></path>
  <path style="fill: rgb(73, 75, 74);" d="M 137.07 454.36 L 137.76 465.83 L 145.15 476.5 L 169.99 444.16 L 137.07 454.36 Z"></path>
</svg>