<svg width="24px" height="24px" viewBox="0 0 24 24" version="1.1" xmlns="http://www.w3.org/2000/svg">
  <defs></defs>
  <g id="Stockholm-icons-/-General-/-Smile" stroke="none" stroke-width="1" fill="none" fill-rule="evenodd">
    <rect id="bound" x="0" y="0" width="24" height="24"></rect>
    <rect id="Combined-Shape" fill="currentColor" opacity="0.3" x="2" y="2" width="20" height="20" rx="10"></rect>
    <path d="M6.16794971,14.5547002 C5.86159725,14.0951715 5.98577112,13.4743022 6.4452998,13.1679497 C6.90482849,12.8615972 7.52569784,12.9857711 7.83205029,13.4452998 C8.9890854,15.1808525 10.3543313,16 12,16 C13.6456687,16 15.0109146,15.1808525 16.1679497,13.4452998 C16.4743022,12.9857711 17.0951715,12.8615972 17.5547002,13.1679497 C18.0142289,13.4743022 18.1384028,14.0951715 17.8320503,14.5547002 C16.3224187,16.8191475 14.3543313,18 12,18 C9.64566871,18 7.67758127,16.8191475 6.16794971,14.5547002 Z" id="Path-56" fill="currentColor"></path>
  </g>
  <g transform="matrix(1, 0, 0, 1, 0.416001, 0)">
    <ellipse fill="currentColor" stroke="none" cx="7.584" cy="9.185" rx="1.822" ry="1.822"></ellipse>
    <ellipse fill="currentColor" stroke="none" cx="15.584" cy="9.185" rx="1.822" ry="1.822"></ellipse>
  </g>
</svg>