<svg xmlns="http://www.w3.org/2000/svg" viewBox="-107.605 0 473.69 473.69">
  <path fill="currentColor" fill-rule="evenodd" d="M103.95 361.12c.04-33.35-24.93-58.4-58.23-91.79C17.72 241.28-.05 199.37 0 152.56c.06-46.78 17.9-88.6 45.96-116.59C68.5 13.5 97.64-.05 129.44 0c71.37.1 129.15 68.55 129.04 152.9-.06 46.78-17.9 88.6-45.96 116.59-33.46 33.37-58.5 58.34-58.55 91.7l-.13 100.03c-16.7 16.65-33.37 16.63-50.02-.06l.13-100.05Zm-73.9-241.06a153.2 153.2 0 0 0-3.53 32.53 152.51 152.51 0 0 0 3.43 32.56l32.6-32.5-32.5-32.6Zm198.38 65.34c2.3-10.49 3.5-21.4 3.52-32.53a152.06 152.06 0 0 0-3.42-32.56l-32.6 32.51 32.5 32.58Zm-49.15-49.28 41.26-41.15a127.9 127.9 0 0 0-20.04-33c-2.11-2.5-4.29-4.86-6.53-7.1l-47.99 47.86 33.3 33.4Zm-49.95-50.08 46.11-46c-14.14-8.81-29.84-13.5-46.03-13.52a84.92 84.92 0 0 0-34.5 7.3 93.68 93.68 0 0 0-11.58 6.1l46 46.12Zm64.39 164.74.07-.07c11.19-11.16 20.17-24.79 26.6-39.97l-41.15-41.27-33.4 33.3 47.88 48Zm-64.53-64.7 33.4-33.3-33.3-33.4-33.4 33.3 33.3 33.4Zm-49.95-50.09 33.39-33.3-47.87-48-.07.07C53.5 65.92 44.51 79.54 38.08 94.73l41.15 41.26Zm49.83 142.95a85.05 85.05 0 0 0 34.5-7.3 94.23 94.23 0 0 0 11.58-6.1l-46-46.11-46.11 46c14.14 8.8 29.84 13.49 46.03 13.51Zm-16.57-76.21-33.3-33.4-41.27 41.17a127.9 127.9 0 0 0 20.05 33 117.7 117.7 0 0 0 6.52 7.1l48-47.87Z" />
</svg>