<?xml version="1.0" encoding="UTF-8" standalone="no"?>
<svg xmlns="http://www.w3.org/2000/svg" xmlns:xlink="http://www.w3.org/1999/xlink" width="244px" height="280px" viewBox="17 10 230 275" version="1.1">
  <path transform="translate(32.00, 36.00)" d="M124,144.61 L124,163 L128,163 L128,163 C167.76,163 200,195.23 200,235 L200,244 L0,244 L0,235 C-4.86e-15,195.23 32.23,163 72,163 L72,163 L76,163 L76,144.61 C58.76,136.42 46.37,119.68 44.30,99.88 C38.48,99.05 34,94.05 34,88 L34,74 C34,68.05 38.32,63.11 44,62.16 L44,56 L44,56 C44,25.07 69.07,5.68e-15 100,0 L100,0 L100,0 C130.92,-5.68e-15 156,25.07 156,56 L156,62.16 C161.67,63.11 166,68.05 166,74 L166,88 C166,94.05 161.51,99.05 155.69,99.88 C153.62,119.68 141.23,136.42 124,144.61 Z" stroke="#bbb" stroke-width="10" fill="none"></path>
</svg>