<svg width="24px" height="24px" viewBox="-1 1 26 26" version="1.1" xmlns="http://www.w3.org/2000/svg" xmlns:xlink="http://www.w3.org/1999/xlink">
  <ellipse fill="currentColor" opacity="0.3" cx="12" cy="12" rx="9" ry="9"></ellipse>
  <path d="M 10.07 13.93 C 11.82 15.67 12.98 18.27 13 20.95 C 12.67 20.98 12.34 21 12 21 C 11.66 21 11.33 20.98 11 20.95 C 10.99 18.69 10.15 16.84 8.66 15.34 C 7.16 13.85 5.31 13.01 3.05 13 C 3.02 12.67 3 12.34 3 12 C 3 11.66 3.02 11.33 3.05 11 C 5.73 11.02 8.33 12.18 10.07 13.93 Z M 13.93 10.07 C 12.18 8.33 11.02 5.73 11 3.05 C 11.33 3.02 11.66 3 12 3 C 12.34 3 12.67 3.02 13 3.05 C 13.01 5.31 13.85 7.16 15.34 8.66 C 16.84 10.15 18.69 10.99 20.95 11 C 20.98 11.33 21 11.66 21 12 C 21 12.34 20.98 12.67 20.95 13 C 18.27 12.98 15.67 11.82 13.93 10.07 Z" fill="currentColor" opacity="0.6"></path>
</svg>