<?xml version="1.0" encoding="UTF-8"?>
<svg viewBox="-200 -200 1424 1424" version="1.1" xmlns="http://www.w3.org/2000/svg" xmlns:xlink="http://www.w3.org/1999/xlink">
  <g id="Stockholm-icons-/-General-/-Cursor" stroke="none" stroke-width="1" fill="none" fill-rule="evenodd">
    <rect id="bound" x="0" y="0" width="1424" height="1424"></rect>
    <path d="M832 736c-64-64-64-160-64.018-288l-0.010 0.018c0.078-107.622-46.096-222.214-135.934-312.054-89.77-89.772-204.234-135.972-311.784-135.964-86.406 0.006-168.362 29.84-229.388 90.866-136.988 136.988-116.796 379.276 45.098 541.172 89.77 89.77 204.234 135.962 311.782 135.962 128.254 0 224.254 0 288.254 64l192 192c64 0 96-32 96-96l-192-192zM512 131.096c24.52 15.758 47.774 34.424 69.126 55.778 21.34 21.34 40.006 44.476 55.826 69.124h-124.952v-124.902zM256 636.902c-24.52-15.758-47.772-34.424-69.124-55.776-21.34-21.34-40.008-44.476-55.83-69.126h124.954v124.902zM256 448h-158.174c-13.56-33.388-21.882-67.564-24.74-101.868-0.734-8.816-1.076-17.528-1.074-26.132h183.988v128zM256 256h-176.788c10.304-44.052 31.484-83.14 62.566-114.222 22.722-22.724 49.736-40.25 80.29-52.096 10.958-4.25 22.288-7.728 33.932-10.452v176.77zM448 695.998c-0.084 0-0.168 0.002-0.254 0.002-42.894 0-86.278-8.966-127.746-25.802v-158.198h128v183.998zM448 448h-128v-128h128v128zM448 256h-128v-183.998c0.090 0 0.178-0.002 0.268-0.002h0.014c42.882 0 86.256 8.966 127.718 25.8v158.2zM626.222 626.222c-22.724 22.724-49.738 40.254-80.292 52.098-10.958 4.25-22.288 7.728-33.932 10.454v-176.774h176.788c-10.302 44.052-31.482 83.14-62.564 114.222zM512 448v-128h158.174c13.562 33.388 21.882 67.562 24.74 101.868 0.734 8.816 1.076 17.528 1.074 26.132h-183.988z" id="Combined-Shape" fill="currentColor" opacity="0.4"  transform="translate(-150, 0)"></path>
    <path d="M 192 736 C 256 672 256 576 256.02 448 L 256.03 448.02 C 255.95 340.4 302.12 225.8 391.96 135.96 C 481.73 46.19 596.2 -0.01 703.75 0 C 790.15 0.01 872.11 29.84 933.13 90.87 C 1070.12 227.85 1049.93 470.14 888.04 632.04 C 798.27 721.81 683.8 768 576.25 768 C 448 768 352 768 288 832 L 96 1024 C 32 1024 0 992 0 928 L 192 736 Z M 512 131.1 C 487.48 146.85 464.23 165.52 442.87 186.87 C 421.53 208.21 402.87 231.35 387.05 256 L 512 256 L 512 131.1 Z M 768 636.9 C 792.52 621.14 815.77 602.48 837.12 581.13 C 858.46 559.79 877.13 536.65 892.95 512 L 768 512 L 768 636.9 Z M 768 448 L 926.17 448 C 939.73 414.61 948.06 380.44 950.91 346.13 C 951.65 337.32 951.99 328.6 951.99 320 L 768 320 L 768 448 Z M 768 256 L 944.79 256 C 934.48 211.95 913.3 172.86 882.22 141.78 C 859.5 119.05 832.49 101.53 801.93 89.68 C 790.97 85.43 779.64 81.95 768 79.23 L 768 256 Z M 576 696 C 576.08 696 576.17 696 576.25 696 C 619.15 696 662.53 687.03 704 670.2 L 704 512 L 576 512 L 576 696 Z M 576 448 L 704 448 L 704 320 L 576 320 L 576 448 Z M 576 256 L 704 256 L 704 72 C 703.91 72 703.82 72 703.73 72 L 703.72 72 C 660.84 72 617.46 80.97 576 97.8 L 576 256 Z M 397.78 626.22 C 420.5 648.95 447.52 666.48 478.07 678.32 C 489.03 682.57 500.36 686.05 512 688.77 L 512 512 L 335.21 512 C 345.52 556.05 366.7 595.14 397.78 626.22 Z M 512 448 L 512 320 L 353.83 320 C 340.26 353.39 331.94 387.56 329.09 421.87 C 328.35 430.68 328.01 439.4 328.01 448 L 512 448 Z" id="Combined-Shape" fill="currentColor" transform="translate(150, 0)"></path>
 </g>
</svg>
