<?xml version="1.0" encoding="UTF-8"?>
<svg width="24px" height="24px" viewBox="0 0 24 24" version="1.1" xmlns="http://www.w3.org/2000/svg">
    <g transform="matrix(1.060308, 0, 0, 1.060308, -20.696608, -13.986032)">
        <path d="M 26.1 23.56 C 26.1 22.6 26.17 21.66 26.31 20.8 C 25.43 20.92 24.66 20.99 23.7 20.99 C 22.46 20.99 22.46 20.99 22.46 20.99 L 21.43 22.75 L 21.43 24.38 L 22.46 26.14 C 22.46 26.14 22.46 26.14 23.7 26.14 C 24.66 26.14 25.43 26.21 26.31 26.33 C 26.17 25.46 26.1 24.53 26.1 23.56 Z M 28.26 27.51 L 25.88 27.06 L 27.4 33.02 C 27.48 33.33 27.79 33.49 28.08 33.37 L 30.28 32.49 C 30.58 32.37 30.7 32.04 30.54 31.76 L 28.26 27.51 Z" fill="currentColor" opacity="0.5"></path>
        <path d="M 40.42 23.56 C 40.42 19.84 39.33 16.81 37.98 16.79 C 37.99 16.79 38 16.79 38 16.79 L 36.46 16.79 C 36.46 16.79 32.85 19.5 27.65 20.57 C 27.49 21.41 27.39 22.41 27.39 23.56 C 27.39 24.72 27.49 25.72 27.65 26.56 C 32.85 27.63 36.46 30.34 36.46 30.34 L 38 30.34 C 38 30.34 37.99 30.34 37.98 30.34 C 39.33 30.31 40.42 27.29 40.42 23.56 Z M 37.47 29.31 C 37.3 29.31 37.11 29.13 37.01 29.03 C 36.78 28.77 36.55 28.36 36.36 27.85 C 35.93 26.72 35.69 25.19 35.69 23.56 C 35.69 21.94 35.93 20.41 36.36 19.28 C 36.55 18.77 36.78 18.36 37.01 18.1 C 37.11 18 37.3 17.81 37.47 17.81 C 37.64 17.81 37.83 18 37.93 18.1 C 38.16 18.36 38.39 18.77 38.58 19.28 C 39.01 20.41 39.25 21.94 39.25 23.56 C 39.25 25.19 39.01 26.72 38.58 27.85 C 38.39 28.36 38.16 28.77 37.93 29.03 C 37.83 29.13 37.64 29.31 37.47 29.31 Z M 37.47 25.78 C 37.4 25.78 37.33 25.71 37.29 25.67 C 37.2 25.57 37.12 25.41 37.04 25.22 C 36.88 24.78 36.78 24.19 36.78 23.56 C 36.78 22.94 36.88 22.35 37.04 21.91 C 37.12 21.72 37.2 21.56 37.29 21.46 C 37.33 21.42 37.4 21.35 37.47 21.35 C 37.54 21.35 37.61 21.42 37.65 21.46 C 37.74 21.56 37.82 21.72 37.9 21.91 C 38.07 22.35 38.16 22.94 38.16 23.56 C 38.16 24.19 38.07 24.78 37.9 25.22 C 37.82 25.41 37.74 25.57 37.65 25.67 C 37.61 25.71 37.54 25.78 37.47 25.78 Z" fill="currentColor"></path>
    </g>
</svg>
