<svg xmlns="http://www.w3.org/2000/svg" width="196.61" height="19.38" viewBox="310.9 -116.64 196.61 19.38">
  <path d="m313.93-97.7-.6.13c-.25.05-.52.08-.82.08-.59 0-1-.13-1.24-.38-.25-.26-.37-.7-.37-1.31v-13.89c0-.35.08-.62.24-.81.15-.18.37-.33.65-.44.5-.2 1.08-.35 1.76-.43.68-.08 1.37-.12 2.08-.12 2.06 0 3.6.5 4.62 1.51a5.55 5.55 0 0 1 1.54 4.16c0 1.17-.26 2.18-.77 3.03a5.15 5.15 0 0 1-2.12 1.98c.68 1.06 1.34 2.06 1.97 3.01.63.95 1.1 1.69 1.4 2.23-.12.48-.34.85-.65 1.12-.3.27-.65.4-1.02.4-.48 0-.85-.13-1.11-.39-.25-.26-.5-.6-.76-1.05l-2.63-4.68h-2.17v5.84Zm1.87-8.67c.88 0 1.6-.23 2.13-.69.54-.47.8-1.17.8-2.11 0-1.86-1.05-2.8-3.14-2.8-.31 0-.61.02-.9.06l-.8.11v5.43h1.9Zm8.85-4.32a5.48 5.48 0 0 1 1.32-.22c.56 0 .97.12 1.23.36.25.24.38.66.38 1.27v11.57l-.55.14c-.24.05-.5.08-.78.08-.56 0-.96-.12-1.22-.36s-.38-.66-.38-1.27v-11.57Zm-.24-4.01c0-.54.16-1 .48-1.38.32-.37.73-.56 1.22-.56.5 0 .9.19 1.21.56.32.38.47.84.47 1.38 0 .55-.15 1.01-.47 1.39-.3.38-.7.57-1.2.57s-.91-.19-1.23-.57a2.09 2.09 0 0 1-.48-1.39Zm14.78 3.62c.4 0 .74.11 1.01.33.27.22.41.59.41 1.11 0 .24-.06.63-.18 1.16-.11.54-.27 1.16-.46 1.86a81.24 81.24 0 0 1-2.95 8.66c-.15.15-.39.27-.7.36a3.64 3.64 0 0 1-2.18-.07 1.29 1.29 0 0 1-.68-.68c-.14-.3-.31-.74-.52-1.3a69.55 69.55 0 0 1-1.37-4.11 94.72 94.72 0 0 1-1.82-6.52c.16-.22.38-.41.67-.56.28-.16.58-.24.9-.24.4 0 .73.11.98.33.26.22.46.62.6 1.19l1.16 4.57a53 53 0 0 0 .65 2.4l.32 1.13.24.9h.1c.45-1.62.89-3.3 1.32-5.02.44-1.73.82-3.43 1.15-5.11a2.53 2.53 0 0 1 1.35-.39Zm7.73 11.16c.45 0 .87-.05 1.24-.16.37-.1.64-.22.81-.37v-3.07l-2.26.25c-.62.07-1.1.23-1.42.48-.33.25-.49.64-.49 1.18 0 .53.17.95.5 1.24.34.3.88.45 1.62.45Zm-.1-11.27c1.53 0 2.75.39 3.66 1.16.9.78 1.36 1.98 1.36 3.6v6.4c0 .44-.1.79-.28 1.05-.19.26-.42.49-.7.69-.43.31-.99.56-1.65.75-.67.18-1.43.28-2.29.28a5.74 5.74 0 0 1-3.67-1.07c-.89-.71-1.34-1.78-1.34-3.2 0-1.24.33-2.18 1-2.84a4.79 4.79 0 0 1 2.87-1.2l3.2-.39v-.5c0-.7-.22-1.21-.65-1.55a2.9 2.9 0 0 0-1.8-.49 7.08 7.08 0 0 0-3.3.91 1.89 1.89 0 0 1-.6-1.41c-.02-.37.06-.67.2-.9.15-.23.39-.44.71-.63a8.51 8.51 0 0 1 3.29-.66Zm11 13.48-.55.14c-.23.05-.5.08-.77.08-.56 0-.97-.12-1.23-.36-.25-.24-.38-.66-.38-1.27v-16.55c.12-.06.3-.11.54-.16.25-.04.5-.07.79-.07.55 0 .96.12 1.22.37.25.23.38.66.38 1.27v16.55Zm18.04-16.77a3.02 3.02 0 0 1 .33 1.41c0 .5-.1.88-.3 1.13a.94.94 0 0 1-.8.39h-3.22v13.84c-.12.04-.31.08-.58.14-.26.05-.54.08-.81.08-.6 0-1.01-.13-1.26-.38-.25-.26-.38-.7-.38-1.31v-12.37h-3.91a4.45 4.45 0 0 1-.22-.61c-.07-.24-.1-.51-.1-.8 0-.52.1-.9.28-1.15.2-.25.47-.37.8-.37h10.17Zm3.25 11.82a3.3 3.3 0 0 0 1.22 2.04c.59.43 1.32.64 2.19.64.65 0 1.25-.11 1.8-.35.56-.23 1-.47 1.34-.73a1.73 1.73 0 0 1 .43 2.42c-.2.29-.5.53-.86.74-.36.2-.8.36-1.3.47a7.43 7.43 0 0 1-4.1-.28c-.76-.3-1.4-.74-1.94-1.34a6.41 6.41 0 0 1-1.26-2.23 9.63 9.63 0 0 1-.45-3.1c0-1.15.15-2.14.44-2.99.3-.85.7-1.56 1.2-2.13.5-.57 1.1-1 1.76-1.27a5.44 5.44 0 0 1 4.22.01c.64.29 1.18.68 1.63 1.19.45.51.8 1.12 1.06 1.83s.38 1.48.38 2.31c0 .51-.1.9-.33 1.16-.23.26-.54.43-.95.5l-6.47 1.11Zm2.6-5.9c-.77 0-1.4.3-1.92.9a4.2 4.2 0 0 0-.86 2.56l5.17-.91a3.4 3.4 0 0 0-.67-1.79c-.4-.51-.97-.76-1.73-.76Zm14.77 2.44c0-.8-.2-1.38-.58-1.75-.38-.37-.9-.55-1.54-.55a3.83 3.83 0 0 0-2.24.69v10.02l-.56.14c-.23.05-.5.08-.8.08-.54 0-.94-.12-1.2-.36-.27-.24-.4-.66-.4-1.27v-8.89c0-.44.08-.8.23-1.08.16-.27.4-.54.73-.8a5.62 5.62 0 0 1 1.79-.93 7.74 7.74 0 0 1 2.47-.37c1.6 0 2.84.42 3.72 1.26.87.84 1.31 2.07 1.31 3.7v8.52l-.55.14c-.24.05-.5.08-.78.08-.56 0-.96-.12-1.22-.36s-.38-.66-.38-1.27v-7Zm13.2 0c0-.8-.19-1.38-.57-1.75-.38-.37-.9-.55-1.55-.55a3.83 3.83 0 0 0-2.24.69v10.02l-.55.14c-.24.05-.5.08-.8.08-.54 0-.95-.12-1.2-.36-.27-.24-.4-.66-.4-1.27v-8.89c0-.44.07-.8.23-1.08.15-.27.4-.54.72-.8a5.62 5.62 0 0 1 1.8-.93 7.73 7.73 0 0 1 2.46-.37c1.6 0 2.84.42 3.72 1.26.88.84 1.32 2.07 1.32 3.7v8.52l-.55.14c-.24.05-.5.08-.78.08-.56 0-.97-.12-1.22-.36-.26-.24-.39-.66-.39-1.27v-7Zm6.01-4.57a5.37 5.37 0 0 1 1.33-.22c.56 0 .97.12 1.23.36.25.24.38.66.38 1.27v11.57l-.55.14c-.24.05-.5.08-.78.08-.56 0-.97-.12-1.22-.36-.26-.24-.39-.66-.39-1.27v-11.57Zm-.23-4.01c0-.54.16-1 .48-1.38.32-.37.73-.56 1.22-.56.5 0 .9.19 1.21.56.31.38.47.84.47 1.38 0 .55-.16 1.01-.47 1.39a1.5 1.5 0 0 1-1.2.57c-.5 0-.91-.19-1.23-.57a2.09 2.09 0 0 1-.48-1.39Zm14.82 13.31c0 1.29-.4 2.3-1.21 3.03-.81.73-2 1.1-3.55 1.1-.63 0-1.21-.06-1.73-.17a4.8 4.8 0 0 1-1.35-.49 2.55 2.55 0 0 1-.89-.77 2.02 2.02 0 0 1-.12-1.93c.14-.25.31-.47.53-.63.43.33.94.63 1.5.88.57.26 1.22.39 1.97.39.64 0 1.12-.12 1.44-.37.33-.25.5-.6.5-1.04 0-.76-.47-1.25-1.4-1.5l-1.3-.36c-1.16-.31-2-.78-2.56-1.41a3.64 3.64 0 0 1-.83-2.51c0-1.21.4-2.18 1.21-2.93a4.86 4.86 0 0 1 3.4-1.12c.56 0 1.08.05 1.56.16.47.1.88.24 1.23.44.35.19.62.42.82.69.2.27.29.58.29.93a1.93 1.93 0 0 1-.63 1.46 3.05 3.05 0 0 0-.55-.33 7.1 7.1 0 0 0-1.6-.54c-.31-.06-.6-.09-.9-.09-.61 0-1.08.11-1.43.34-.34.23-.5.56-.5.99 0 .31.09.57.28.77.2.2.54.37 1.02.5l1.14.33c1.29.35 2.22.86 2.8 1.54.57.67.86 1.55.86 2.64Zm8.94 3.76c-.5 0-.89-.17-1.17-.52a2.16 2.16 0 0 1-.43-1.41v-14.92a4.99 4.99 0 0 1 1.4-.22c.55 0 .96.12 1.23.35.26.24.4.69.4 1.33v12.43h5.98a3.6 3.6 0 0 1 .35 1.41c0 .5-.1.89-.29 1.15-.2.27-.46.4-.8.4h-6.67Zm14.24-2.29c.45 0 .86-.05 1.23-.16.37-.1.65-.22.82-.37v-3.07l-2.26.25c-.63.07-1.1.23-1.42.48-.33.25-.5.64-.5 1.18 0 .53.17.95.5 1.24.34.3.88.45 1.63.45Zm-.1-11.27c1.53 0 2.74.39 3.65 1.16.9.78 1.36 1.98 1.36 3.6v6.4c0 .44-.09.79-.28 1.05-.18.26-.42.49-.7.69-.43.31-.98.56-1.65.75-.67.18-1.43.28-2.28.28a5.74 5.74 0 0 1-3.67-1.07c-.9-.71-1.34-1.78-1.34-3.2 0-1.24.33-2.18.99-2.84a4.78 4.78 0 0 1 2.88-1.2l3.19-.39v-.5c0-.7-.22-1.21-.64-1.55a2.9 2.9 0 0 0-1.81-.49 7.1 7.1 0 0 0-3.3.91 1.89 1.89 0 0 1-.6-1.41c-.01-.37.06-.67.2-.9.16-.23.4-.44.72-.63a8.53 8.53 0 0 1 3.29-.66Zm18.13 10.96c0 .43-.07.77-.23 1.03s-.39.5-.7.74a6.39 6.39 0 0 1-3.75 1.2 5.88 5.88 0 0 1-4.44-1.7c-1.1-1.14-1.64-2.88-1.64-5.23 0-1.21.14-2.26.44-3.14.3-.87.7-1.6 1.2-2.17.5-.57 1.1-1 1.78-1.27a5.78 5.78 0 0 1 3.4-.27c.38.1.71.23 1 .38v-5.01c.13-.06.31-.11.56-.16.24-.04.5-.07.77-.07.56 0 .97.12 1.23.37.25.23.38.66.38 1.27v14.03Zm-2.93-7.61a2.98 2.98 0 0 0-1.82-.58c-.87 0-1.6.33-2.17 1-.57.66-.86 1.75-.86 3.26 0 1.42.28 2.46.83 3.12.55.65 1.3.98 2.25.98a2.9 2.9 0 0 0 1.77-.56v-7.22Zm16.14 7.61c0 .43-.07.77-.23 1.03-.15.26-.39.5-.7.74a6.44 6.44 0 0 1-3.75 1.2 5.87 5.87 0 0 1-4.44-1.7c-1.1-1.14-1.64-2.88-1.64-5.23 0-1.21.15-2.26.44-3.14.3-.87.7-1.6 1.2-2.17.5-.57 1.1-1 1.78-1.27a5.79 5.79 0 0 1 3.4-.27c.38.1.71.23 1 .38v-5.01c.13-.06.31-.11.56-.16.24-.04.5-.07.78-.07.55 0 .96.12 1.22.37.26.23.38.66.38 1.27v14.03Zm-2.93-7.61a2.97 2.97 0 0 0-1.82-.58c-.87 0-1.6.33-2.17 1-.57.66-.86 1.75-.86 3.26 0 1.42.28 2.46.83 3.12.55.65 1.3.98 2.25.98a2.9 2.9 0 0 0 1.77-.56v-7.22Zm8.31 5.18c.22.94.62 1.62 1.21 2.04.6.43 1.32.64 2.2.64.65 0 1.25-.11 1.8-.35.55-.23 1-.47 1.34-.73a1.73 1.73 0 0 1 .43 2.42c-.2.29-.5.53-.86.74-.37.2-.8.36-1.3.47a7.42 7.42 0 0 1-4.1-.28c-.76-.3-1.4-.74-1.94-1.34a6.38 6.38 0 0 1-1.26-2.23 9.6 9.6 0 0 1-.45-3.1c0-1.15.14-2.14.44-2.99.3-.85.7-1.56 1.2-2.13.5-.57 1.09-1 1.76-1.27a5.42 5.42 0 0 1 4.21.01c.64.29 1.19.68 1.64 1.19.45.51.8 1.12 1.06 1.83.25.71.38 1.48.38 2.31 0 .51-.11.9-.34 1.16-.22.26-.54.43-.94.5l-6.48 1.11Zm2.59-5.9c-.76 0-1.4.3-1.91.9a4.2 4.2 0 0 0-.86 2.56l5.17-.91a3.37 3.37 0 0 0-.68-1.79c-.39-.51-.96-.76-1.72-.76Zm10.41 10.85-.55.14c-.24.05-.5.08-.8.08-.54 0-.94-.12-1.2-.36-.27-.24-.4-.66-.4-1.27v-8.77c0-.49.09-.89.27-1.22.2-.33.46-.63.82-.89a6.09 6.09 0 0 1 1.78-.86c.71-.22 1.48-.33 2.3-.33 1.47 0 2.21.54 2.21 1.63a2.96 2.96 0 0 1-.33 1.3c-.35-.09-.8-.13-1.32-.13a5.14 5.14 0 0 0-2.78.77v9.91Z" style="fill:#e7e065;text-wrap-mode:nowrap"/>
</svg>