<?xml version="1.0" encoding="utf-8"?>
<svg viewBox="65.452 108.295 101.546 23.097" xmlns="http://www.w3.org/2000/svg">
    <defs>
        <linearGradient id="gradient" x1="0" x2="0" y1="0" y2="1">
            <stop offset="0%" stop-color="#f4ee54" />
            <stop offset="100%" stop-color="#bfcd3f" />
        </linearGradient>
    </defs>
    <g fill="url(#gradient)">
      <path d="M 65.452 109.947 C 66.056 111.68 66.62 113.453 67.104 115.347 C 67.95 118.571 68.797 122.601 68.797 126.47 L 68.797 127.84 C 68.756 128.928 68.716 129.976 68.716 131.226 L 75.365 129.936 C 75.365 129.13 75.325 128.002 75.285 126.833 C 75.245 125.704 75.164 124.495 75.043 123.569 C 76.091 123.569 77.139 123.73 78.227 124.012 C 80.322 124.657 82.297 125.543 83.99 126.591 C 85.682 127.639 86.932 128.606 87.657 129.211 C 88.02 129.493 88.181 129.654 88.221 129.654 C 88.261 129.654 88.423 129.614 88.745 129.493 C 89.027 129.372 89.43 129.251 89.873 129.049 L 91.324 128.485 C 92.372 128.082 93.259 127.719 93.823 127.478 C 94.065 127.357 94.186 127.316 94.186 127.276 C 93.339 126.43 92.13 125.543 90.841 124.737 C 89.551 123.931 88.181 123.206 86.891 122.561 C 85.4 121.836 83.788 121.151 82.136 120.506 C 82.942 120.264 83.748 120.022 84.554 119.821 C 85.36 119.619 86.085 119.337 86.73 119.015 C 88.02 118.41 88.906 117.685 88.906 116.435 C 88.906 115.025 87.576 113.776 85.521 112.688 C 83.425 111.599 80.685 110.753 77.904 109.987 C 75.124 109.222 72.303 108.658 70.086 108.295 Z M 73.149 113.816 C 74.237 113.816 75.285 113.937 76.373 114.219 C 78.509 114.783 80.242 115.629 81.29 116.435 C 81.813 116.838 82.055 117.161 82.055 117.443 C 82.055 117.725 81.854 117.967 81.491 118.209 C 81.128 118.491 80.604 118.692 79.919 118.894 C 78.589 119.297 76.695 119.579 74.479 119.579 C 74.398 119.095 74.318 118.612 74.237 118.168 C 74.197 117.846 74.116 117.524 74.076 117.201 C 73.794 115.912 73.512 114.461 73.149 113.816 Z" />
      <path d="M 93.136 109.796 C 93.544 110.986 94.086 113.058 94.628 115.527 C 95.172 118.039 95.668 120.905 96.031 123.682 C 96.393 126.459 96.664 129.104 96.664 131.044 L 102.725 130.205 C 102.317 121.301 101.233 114.028 99.378 108.386 L 93.136 109.796 Z" />
      <path d="M 120.676 108.996 C 120.197 109.75 119.46 111.099 118.723 112.732 C 117.95 114.365 117.139 116.249 116.402 118.038 C 115.665 119.827 115.04 121.586 114.635 122.842 C 114.155 121.46 113.53 120.11 112.83 118.791 C 111.356 116.186 109.956 113.988 108.298 111.822 L 103.731 113.925 C 104.284 114.71 104.836 115.558 105.426 116.405 C 105.904 117.128 106.456 117.975 107.083 118.886 C 108.298 120.769 109.478 122.779 110.398 124.788 C 111.319 126.797 111.982 128.461 112.572 130.188 L 117.655 131.255 C 118.355 128.241 119.055 125.792 119.902 123.438 C 120.749 121.083 121.67 118.917 122.849 116.5 C 124.028 114.114 125.391 111.508 127.122 108.337 L 120.676 108.996 Z" />
      <path d="M 131.961 109.617 C 131.26 111.695 130.558 113.666 129.561 115.954 C 128.527 118.242 127.419 120.495 126.125 122.607 C 124.796 124.72 123.651 126.444 122.432 128.169 L 127.381 130.879 L 130.632 125.706 L 136.467 125.458 L 139.422 130.527 L 145.887 131.267 C 144.298 128.451 142.932 125.353 141.86 122.642 C 140.789 119.932 140.013 117.609 139.607 116.235 C 138.721 113.385 137.908 110.814 137.908 108.386 L 131.961 109.617 Z M 131.703 122.678 L 134.251 117.644 L 135.988 122.466 L 131.703 122.678 Z" />
      <path d="M 145.042 110.293 C 145.674 112.051 146.391 115.743 146.981 119.743 C 147.572 123.789 147.951 128.097 147.951 131.043 C 148.036 131.043 149.722 130.999 153.011 130.867 L 164.226 128.626 L 165.998 123.173 L 153.77 125.02 C 153.011 118.206 152.041 112.709 150.819 108.445 L 145.042 110.293 Z" />
    </g>
</svg>