<?xml version="1.0" encoding="utf-8"?>
<svg viewBox="186.51 87.37 169.2267 179.37" xmlns="http://www.w3.org/2000/svg">
  <path d="M 283.91 152.06 C 283.91 152.12 283.91 152.19 283.91 152.25 C 283.87 156.2 287.05 159.41 291.01 159.46 C 292.38 159.47 293.67 159.11 294.77 158.45 L 294.93 158.55 L 312.36 148.7 L 314.88 124.14 C 315.37 119.33 319 115.76 322.96 116.2 C 326.92 116.63 329.73 120.9 329.24 125.72 L 327.77 139.98 L 344.87 130.33 C 348.3 128.31 352.73 129.46 354.75 132.91 C 356.76 136.34 355.6 140.78 352.17 142.79 L 335.36 152.29 L 347.61 157.81 C 352.03 159.8 354.27 164.36 352.61 167.98 C 350.94 171.59 346 172.92 341.59 170.94 L 319.76 161.11 L 298.86 172.92 C 297.79 174.15 297.12 175.75 297.11 177.52 C 297.09 179.13 297.62 180.62 298.51 181.84 L 318.67 194.15 L 341.34 184.4 C 345.78 182.5 350.66 183.93 352.21 187.6 C 353.76 191.28 351.39 195.8 346.95 197.72 L 333.78 203.37 L 350.52 213.6 C 353.97 215.63 355.11 220.07 353.09 223.5 C 351.06 226.93 346.62 228.07 343.19 226.05 L 326.7 215.99 L 327.84 229.39 C 328.25 234.2 325.35 238.38 321.38 238.69 C 317.41 239 313.86 235.33 313.44 230.51 L 311.4 206.63 L 292.3 194.97 L 292.06 195.1 C 291.47 194.93 290.87 194.85 290.23 194.84 C 287.42 194.81 284.99 196.38 283.78 198.69 L 283.73 221.53 L 303.84 235.85 C 307.78 238.65 309.09 243.57 306.75 246.79 C 304.43 250.02 299.33 250.37 295.38 247.56 L 284.09 239.52 L 284.15 259.5 C 284.16 263.48 280.94 266.73 276.95 266.74 C 272.97 266.75 269.72 263.52 269.71 259.54 L 269.65 239.07 C 269.64 235.13 272.81 231.91 276.73 231.83 L 276.73 122.29 C 276.66 122.29 276.6 122.29 276.53 122.29 C 272.55 122.3 269.3 119.07 269.29 115.09 L 269.23 94.62 C 269.22 90.64 272.45 87.39 276.43 87.38 C 276.53 87.38 276.63 87.38 276.73 87.39 L 276.73 87.37 C 280.68 87.36 283.93 90.53 283.99 94.49 L 283.96 113.99 L 295.38 105.86 C 299.33 103.05 304.43 103.4 306.75 106.63 C 309.09 109.85 307.78 114.77 303.84 117.57 L 283.92 131.76 L 283.87 152.03 Z M 238.17 137.73 C 235.44 140.62 230.87 140.75 227.97 138.01 L 213.1 123.96 C 210.2 121.22 210.07 116.64 212.81 113.74 C 215.54 110.85 220.12 110.72 223.02 113.46 L 237.89 127.52 C 240.79 130.26 240.91 134.83 238.17 137.73 Z M 221.42 176.31 C 221.43 180.29 218.2 183.54 214.21 183.55 L 193.75 183.59 C 189.77 183.6 186.52 180.37 186.51 176.39 C 186.5 172.4 189.73 169.15 193.71 169.14 L 214.17 169.1 C 218.16 169.09 221.41 172.32 221.42 176.31 Z M 238.18 215.76 C 240.99 218.59 240.97 223.16 238.14 225.97 L 223.61 240.38 C 220.78 243.19 216.21 243.17 213.4 240.34 C 210.6 237.51 210.61 232.94 213.44 230.13 L 227.97 215.72 C 230.8 212.91 235.38 212.94 238.18 215.76 Z" opacity="0.6" fill="currentColor"/>
  <path d="M 276.55 222.93 C 251.39 222.93 231 202.54 231 177.4 C 231 152.24 251.39 131.85 276.55 131.85 C 276.64 131.85 276.75 131.85 276.84 131.85 L 276.84 222.93 C 276.75 222.93 276.64 222.93 276.55 222.93 Z" fill="currentColor"/>
</svg>