<?xml version="1.0" encoding="UTF-8" standalone="no"?>
<svg xmlns="http://www.w3.org/2000/svg" xmlns:xlink="http://www.w3.org/1999/xlink" width="244px" height="280px" viewBox="22 15 220 265" version="1.1">
<path d="M 156 180.61 L 156 199 L 160 199 C 199.76 199 232 231.23 232 271 L 232 290.15 L 32 290.15 L 32 271 C 32 231.23 64.23 199 104 199 L 108 199 L 108 180.61 C 90.76 172.42 78.37 155.68 76.3 135.88 C 70.48 135.05 66 130.05 66 124 L 66 110 C 66 104.05 68.96 99.71 74.64 98.76 C 73.03 62.09 91.89 35.31 132 35.13 C 172.11 34.95 190.02 61.21 188.56 98.29 C 194.23 99.24 198 104.05 198 110 L 198 124 C 198 130.05 193.51 135.05 187.69 135.88 C 185.62 155.68 173.23 172.42 156 180.61 Z" fill="#bbb" ></path>
</svg>