<svg viewBox="0 0 160 160" xmlns="http://www.w3.org/2000/svg" version="1.1">
  <path d="M 0 80 C 0 20 20 0 80 0 C 140 0 160 20 160 80 C 160 140 140 160 80 160 C 20 160 0 140 0 80" style="fill: rgb(17, 17, 17);"></path>
  <path d="M 64.6 80.049 C 64.6 97.297 57.529 114.529 46.921 126.721 L 46.91 126.753 C 46.112 127.521 45.017 128.001 43.806 128.001 C 42.627 128.001 41.555 127.537 40.765 126.801 L 33.347 119.377 L 33.345 119.377 C 32.568 118.577 32.078 117.473 32.078 116.241 C 32.078 114.929 32.718 113.745 33.557 112.865 L 33.576 112.849 C 41.285 103.809 45.352 93.185 45.352 80.049 C 45.352 66.577 41.059 55.713 32.931 46.513 C 32.353 45.761 32 44.817 32 43.793 C 32 42.625 32.451 41.569 33.185 40.785 L 33.414 40.561 C 33.443 40.513 33.472 40.497 33.502 40.465 L 40.681 33.281 L 40.683 33.281 C 41.48 32.497 42.579 32.001 43.792 32.001 C 45.117 32.001 46.305 32.577 47.115 33.505 L 47.125 33.505 C 57.619 45.713 64.6 62.913 64.6 80.049 L 64.6 80.049 Z M 95.4 80.049 C 95.4 97.297 102.47 114.529 113.078 126.721 L 113.089 126.753 C 113.888 127.521 114.982 128.001 116.193 128.001 C 117.373 128.001 118.445 127.537 119.235 126.801 L 126.653 119.377 L 126.654 119.377 C 127.432 118.577 127.921 117.473 127.921 116.241 C 127.921 114.929 127.281 113.745 126.443 112.865 L 126.424 112.849 C 118.715 103.809 114.648 93.185 114.648 80.049 C 114.648 66.577 118.941 55.713 127.069 46.513 C 127.646 45.761 128 44.817 128 43.793 C 128 42.625 127.549 41.569 126.814 40.785 L 126.585 40.561 C 126.557 40.513 126.528 40.497 126.497 40.465 L 119.318 33.281 L 119.317 33.281 C 118.52 32.497 117.421 32.001 116.208 32.001 C 114.883 32.001 113.694 32.577 112.885 33.505 L 112.875 33.505 C 102.381 45.713 95.4 62.913 95.4 80.049 Z" fill="#e7e163"></path>
  <path d="M 86.811 95.745 C 90.141 96.049 91.15 96.609 92.086 100.449 C 93.194 104.993 94.978 109.297 96.986 113.425 C 97.779 115.057 96.251 117.009 94.539 116.529 C 90.085 115.281 85.298 114.657 80.12 114.657 L 79.721 114.657 C 74.63 114.673 69.917 115.297 65.528 116.529 C 63.816 117.009 62.288 115.057 63.081 113.425 C 65.089 109.297 66.873 104.993 67.981 100.449 C 68.917 96.609 69.926 96.049 73.256 95.745 C 75.481 95.537 77.713 95.393 79.947 95.393 L 80.193 95.393 C 82.402 95.409 84.61 95.553 86.811 95.745 L 86.811 95.745 Z M 86.811 64.257 C 90.141 63.953 91.15 63.393 92.086 59.553 C 93.194 55.009 94.978 50.705 96.986 46.577 C 97.779 44.945 96.251 42.993 94.539 43.473 C 90.085 44.721 85.298 45.345 80.12 45.345 L 79.721 45.345 C 74.63 45.329 69.917 44.705 65.528 43.473 C 63.816 42.993 62.288 44.945 63.081 46.577 C 65.089 50.705 66.873 55.009 67.981 59.553 C 68.917 63.393 69.926 63.953 73.256 64.257 C 75.481 64.465 77.713 64.609 79.947 64.609 L 80.193 64.609 C 82.402 64.593 84.61 64.449 86.811 64.257 L 86.811 64.257 Z" fill="#8f8c46"></path>
</svg>