<svg width="244px" height="280px" viewBox="10 0 244 280" version="1.1" xmlns="http://www.w3.org/2000/svg" xmlns:xlink="http://www.w3.org/1999/xlink"><defs><circle id="react-path-763" cx="120" cy="120" r="120"></circle><path d="M12,160 C12,226.27 65.72,280 132,280 C198.27,280 252,226.27 252,160 L264,160 L264,-1.42e-14 L-3.19e-14,-1.42e-14 L-3.19e-14,160 L12,160 Z" id="react-path-764"></path><path d="M124,144.61 L124,163 L128,163 L128,163 C167.76,163 200,195.23 200,235 L200,244 L0,244 L0,235 C-4.86e-15,195.23 32.23,163 72,163 L72,163 L76,163 L76,144.61 C58.76,136.42 46.37,119.68 44.30,99.88 C38.48,99.05 34,94.05 34,88 L34,74 C34,68.05 38.32,63.11 44,62.16 L44,56 L44,56 C44,25.07 69.07,5.68e-15 100,0 L100,0 L100,0 C130.92,-5.68e-15 156,25.07 156,56 L156,62.16 C161.67,63.11 166,68.05 166,74 L166,88 C166,94.05 161.51,99.05 155.69,99.88 C153.62,119.68 141.23,136.42 124,144.61 Z" id="react-path-765"></path></defs><g id="Avataaar" stroke="none" stroke-width="1" fill="none" fill-rule="evenodd"><g transform="translate(-825.00, -1100.00)" id="Avataaar/Circle"><g transform="translate(825.00, 1100.00)"><g id="Mask"></g><g id="Avataaar" stroke-width="1" fill-rule="evenodd" mask="url(#react-mask-767)"><g id="Body" transform="translate(32.00, 36.00)"><mask id="react-mask-768" fill="white"><use xlink:href="#react-path-765"></use></mask><use fill="#D0C6AC" xlink:href="#react-path-765"></use><g id="Skin/👶🏽-03-Brown" mask="url(#react-mask-768)" fill="#FFDBB4"><g transform="translate(0.00, 0.00)" id="Color"><rect x="0" y="0" width="264" height="280"></rect></g></g><path d="M156,79 L156,102 C156,132.92 130.92,158 100,158 C69.07,158 44,132.92 44,102 L44,79 L44,94 C44,124.92 69.07,150 100,150 C130.92,150 156,124.92 156,94 L156,79 Z" id="Neck-Shadow" fill-opacity="0.10" fill="#000000" mask="url(#react-mask-768)"></path></g><g id="Clothing/Shirt-V-Neck" transform="translate(0.00, 170.00)"><defs><path d="M171.31,29.93 C205.70,35.36 232,65.13 232,101.05 L232,110 L32,110 L32,101.05 C32,65.13 58.29,35.36 92.68,29.93 C93.58,35.00 96.11,39.82 100.23,43.53 L100.23,43.53 L129.32,69.76 C130.84,71.14 133.15,71.14 134.67,69.76 L134.67,69.76 L163.76,43.53 C164.18,43.15 164.60,42.75 164.99,42.34 C168.41,38.78 170.51,34.45 171.31,29.93 Z" id="react-path-769"></path></defs><mask id="react-mask-770" fill="white"><use xlink:href="#react-path-769"></use></mask><use id="Clothes" fill="#E6E6E6" fill-rule="evenodd" xlink:href="#react-path-769"></use><g id="Color/Palette/Gray-01" mask="url(#react-mask-770)" fill-rule="evenodd" fill="#262E33"><rect id="🖍Color" x="0" y="0" width="264" height="110"></rect></g></g><g id="Face" transform="translate(76.00, 82.00)" fill="#000000"><g id="Mouth/Smile" transform="translate(2.00, 52.00)"><defs><path d="M35.11,15.12 C36.17,24.61 44.22,32 54,32 C63.80,32 71.87,24.57 72.89,15.04 C72.97,14.27 72.11,13 71.04,13 C56.14,13 44.73,13 37.08,13 C36.00,13 35.01,14.17 35.11,15.12 Z" id="react-path-771"></path></defs><mask id="react-mask-772" fill="white"><use xlink:href="#react-path-771"></use></mask><use id="Mouth" fill-opacity="0.69" fill="#000000" fill-rule="evenodd" xlink:href="#react-path-771"></use><rect id="Teeth" fill="#FFFFFF" fill-rule="evenodd" mask="url(#react-mask-772)" x="39" y="2" width="31" height="16" rx="5"></rect><g id="Tongue" stroke-width="1" fill-rule="evenodd" mask="url(#react-mask-772)" fill="#FF4F6D"><g transform="translate(38.00, 24.00)"><circle cx="11" cy="11" r="11"></circle><circle cx="21" cy="11" r="11"></circle></g></g></g><g id="Nose/Default" transform="translate(28.00, 40.00)" fill-opacity="0.16"><path d="M16,8 C16,12.41 21.37,16 28,16 L28,16 C34.62,16 40,12.41 40,8" id="Nose"></path></g><g id="Eyes/Squint-😊" transform="translate(0.00, 8.00)"><defs><path d="M14,14.04 C23.60,14.04 28,18.49 28,11.56 C28,4.62 21.73,0 14,0 C6.26,0 0,4.62 0,11.56 C0,18.49 4.39,14.04 14,14.04 Z" id="react-path-773"></path><path d="M14,14.04 C23.60,14.04 28,18.49 28,11.56 C28,4.62 21.73,0 14,0 C6.26,0 0,4.62 0,11.56 C0,18.49 4.39,14.04 14,14.04 Z" id="react-path-774"></path></defs><g id="Eye" transform="translate(16.00, 13.00)"><mask id="react-mask-775" fill="white"><use xlink:href="#react-path-773"></use></mask><use id="The-white-stuff" fill="#FFFFFF" xlink:href="#react-path-773"></use><circle fill-opacity="0.69" fill="#000000" mask="url(#react-mask-775)" cx="14" cy="10" r="6"></circle></g><g id="Eye" transform="translate(68.00, 13.00)"><mask id="react-mask-776" fill="white"><use xlink:href="#react-path-774"></use></mask><use id="Eyeball-Mask" fill="#FFFFFF" xlink:href="#react-path-774"></use><circle fill-opacity="0.69" fill="#000000" mask="url(#react-mask-776)" cx="14" cy="10" r="6"></circle></g></g><g id="Eyebrow/Outline/Default" fill-opacity="0.59"><g id="I-Browse" transform="translate(12.00, 6.00)"><path d="M3.63,11.15 C7.54,5.64 18.27,2.56 27.52,4.83 C28.59,5.09 29.67,4.43 29.94,3.36 C30.20,2.29 29.54,1.21 28.47,0.94 C17.74,-1.69 5.31,1.88 0.36,8.84 C-0.27,9.74 -0.05,10.99 0.84,11.63 C1.74,12.27 2.99,12.05 3.63,11.15 Z" id="Eyebrow" fill-rule="nonzero"></path><path d="M61.63,11.15 C65.54,5.64 76.27,2.56 85.52,4.83 C86.59,5.09 87.67,4.43 87.94,3.36 C88.20,2.29 87.54,1.21 86.47,0.94 C75.74,-1.69 63.31,1.88 58.36,8.84 C57.72,9.74 57.94,10.99 58.84,11.63 C59.74,12.27 60.99,12.05 61.63,11.15 Z" id="Eyebrow" fill-rule="nonzero" transform="translate(73.00, 6.03) scale(-1, 1) translate(-73.00, -6.03) "></path></g></g></g><g><defs><linearGradient id="777"><stop offset="0%" stop-color="#444"></stop><stop offset="40%" stop-color="#000"></stop><stop offset="60%" stop-color="#000"></stop><stop offset="100%" stop-color="#444"></stop></linearGradient><path d="M 76.78 87.6 C 112.28 80.55 153.08 79.43 188.07 88.43 C 188.91 77.07 185.62 60.87 179.52 53.85 C 144.36 46.34 119.28 48.5 85.58 53.24 C 79.8 60.58 77.46 76.26 76.78 87.6 Z" id="781"></path><mask id="778"><use xlink:href="#781" fill="white"></use></mask><mask id="779"><use xlink:href="#781" fill="url(#777)"></use></mask><mask id="780"><path d="M 84.73 54.24 C 84.73 54.24 100.07 31.59 133.85 31.59 C 167.63 31.59 179.87 54.88 179.77 54.87 L 84.73 54.24 Z" fill="white"></path></mask></defs><g transform="translate(-1, 0)"><g id="Skin/👶🏽-03-Brown" mask="url(#780)" fill="#FFDBB4"><g transform="translate(0.00, 0.00)" id="Color"><rect x="0" y="0" width="264" height="280"></rect></g></g><g id="Skin/👶🏽-03-Brown" mask="url(#778)" fill="#FFA500"><g transform="translate(0.00, 0.00) " id="Color"><rect x="0" y="0" width="264" height="280"></rect></g></g><rect x="0" y="0" width="100%" height="100%" fill="black" mask="url(#779)"></rect><path transform="translate(2, 20)" d="M 117.74 37.11 C 117.74 37.11 111.62 47.79 122.02 46.28 C 127.53 45.49 156.57 37.36 156.57 37.36 C 156.57 37.36 122.22 53.58 117.05 53.55 C 111.88 53.52 110.04 50.74 111.22 46.66 C 112.4 42.58 117.74 37.11 117.74 37.11 Z" fill="#fff"></path></g></g></g></g></g></g></svg>