<?xml version="1.0" encoding="UTF-8"?>
<svg viewBox="-200 -200 1424 1424" version="1.1" xmlns="http://www.w3.org/2000/svg" xmlns:xlink="http://www.w3.org/1999/xlink">
  <g id="Stockholm-icons-/-General-/-Cursor" stroke="none" stroke-width="1" fill="none" fill-rule="evenodd">
    <rect id="bound" x="0" y="0" width="1424" height="1424"></rect>
    <path d="M 874 928 C 874 992 842 1024 778 1024 L 586 832 C 564.836 810.836 540.172 796.67 512 787.189 C 566.285 768.92 633.598 768.044 714.002 768.002 Z M 297.746 768 C 190.198 768 75.734 721.808 -14.036 632.038 C -175.93 470.142 -196.12 227.854 -59.134 90.866 C 1.892 29.84 83.848 0.006 170.254 0 C 277.804 -0.008 392.268 46.192 482.038 135.964 C 492.633 146.559 502.621 157.499 511.997 168.731 C 441.872 252.737 405.959 353.094 406.03 448.02 L 406.02 448 C 406 576 406 672 342 736 L 309.998 768.002 C 305.947 768 301.863 768 297.746 768 Z" fill="currentColor" opacity="0.3" ></path>
    <path d="M 342 736 C 406 672 406 576 406.02 448 L 406.03 448.02 C 405.95 340.4 452.12 225.8 541.96 135.96 C 631.73 46.19 746.2 -0.01 853.75 0 C 940.15 0.01 1022.11 29.84 1083.13 90.87 C 1220.12 227.85 1199.93 470.14 1038.04 632.04 C 948.27 721.81 833.8 768 726.25 768 C 598 768 502 768 438 832 L 246 1024 C 182 1024 150 992 150 928 L 342 736 Z" fill="currentColor" opacity="0.7" ></path>
 </g>
</svg>
