<svg xmlns="http://www.w3.org/2000/svg" width="600" height="600" viewBox="500.03 -3400 600 600">
  <g>
  <path d="M703.78-3099.7c0 107.8-44.19 215.5-110.49 291.7l-.07.2c-4.99 4.8-11.83 7.8-19.4 7.8-7.37 0-14.07-2.9-19.01-7.5l-46.36-46.4h-.01c-4.86-5-7.92-11.9-7.92-19.6 0-8.2 4-15.6 9.24-21.1l.12-.1c48.18-56.5 73.6-122.9 73.6-205 0-84.2-26.83-152.1-77.63-209.6-3.61-4.7-5.82-10.6-5.82-17 0-7.3 2.82-13.9 7.41-18.8l1.43-1.4c.18-.3.36-.4.55-.6l44.87-44.9h.01c4.98-4.9 11.85-8 19.43-8 8.28 0 15.71 3.6 20.77 9.4h.06c65.59 76.3 109.22 183.8 109.22 290.9Z M896.28-3099.7c0 107.8 44.19 215.5 110.49 291.7l.07.2c4.99 4.8 11.83 7.8 19.4 7.8 7.37 0 14.07-2.9 19.01-7.5l46.36-46.4h.01c4.86-5 7.92-11.9 7.92-19.6 0-8.2-4-15.6-9.24-21.1l-.12-.1c-48.18-56.5-73.6-122.9-73.6-205 0-84.2 26.83-152.1 77.63-209.6 3.61-4.7 5.82-10.6 5.82-17 0-7.3-2.82-13.9-7.41-18.8l-1.43-1.4c-.18-.3-.36-.4-.55-.6l-44.87-44.9h-.01c-4.98-4.9-11.85-8-19.43-8-8.28 0-15.71 3.6-20.77 9.4h-.06c-65.59 76.3-109.22 183.8-109.22 290.9Z" fill="#e7e163"/>
  <path d="M842.602-3001.6c20.81 1.9 27.12 5.4 32.97 29.4 6.92 28.4 18.07 55.3 30.62 81.1 4.96 10.2-4.59 22.4-15.29 19.4-27.84-7.8-57.76-11.7-90.12-11.7h-2.492c-31.82.1-61.275 4-88.71 11.7-10.7 3-20.25-9.2-15.29-19.4 12.55-25.8 23.7-52.7 30.62-81.1 5.85-24 12.16-27.5 32.97-29.4 13.91-1.3 27.86-2.2 41.82-2.2h1.535c13.809.1 27.608 1 41.367 2.2ZM842.602-3198.4c20.81-1.9 27.12-5.4 32.97-29.4 6.92-28.4 18.07-55.3 30.62-81.1 4.96-10.2-4.59-22.4-15.29-19.4-27.84 7.8-57.76 11.7-90.12 11.7h-2.492c-31.82-.1-61.275-4-88.71-11.7-10.7-3-20.25 9.2-15.29 19.4 12.55 25.8 23.7 52.7 30.62 81.1 5.85 24 12.16 27.5 32.97 29.4 13.91 1.3 27.86 2.2 41.82 2.2h1.535c13.809-.1 27.608-1 41.367-2.2Z" fill="#8f8c46"/>
  </g>
</svg>