<?xml version="1.0" encoding="UTF-8" standalone="no"?>
<svg viewBox="130 311 245 167" xmlns="http://www.w3.org/2000/svg">
  <defs></defs>
  <path d="M 162.35 344.19 L 325.25 324.2 L 287.92 433.55 L 194.03 448.26 L 162.35 344.19 Z" style="fill: rgb(73, 75, 74);"></path>
  <path d="M 156.32 393.58 L 321.1 369.45 L 315.82 416.21 L 160.47 438.83 L 156.32 393.58 Z" style="fill: rgb(251, 176, 23);"></path>
  <text transform="matrix(0.989355, -0.145523, 0.145523, 0.989355, 73.493721, 268.24176)" style="fill: rgb(70, 74, 83); font-size: 29.9px; font-style: italic; font-weight: bold; text-anchor: middle; white-space: pre;" x="142.43" y="168.47">UPDATES</text>
  <text transform="matrix(0.990056, -0.140676, 0.140676, 0.990056, 53.413822, 201.600128)" style="fill: rgb(255, 255, 255); font-size: 34.4px; font-style: italic; font-weight: bold; letter-spacing: 2.3px; stroke: rgb(255, 255, 255); text-anchor: middle; white-space: pre;" x="163.83" y="193.78">NEW</text>
  <path d="M 345.23 430.23 L 335.25 439.87 L 320.87 420.01 L 345.23 430.23 Z" style="fill: rgb(83, 89, 99);"></path>
  <path d="M 324.39 442.09 L 316.38 443.93 L 315.15 429.45 L 324.39 442.09 Z" style="fill: rgb(251, 176, 23);"></path>
  <path d="M 342.97 412.66 L 340.33 418.78 L 330.23 412.64 L 342.97 412.66 Z" style="fill: rgb(251, 176, 23);"></path>
  <path d="M 131.03 331.56 L 140.12 321.08 L 156.19 339.6 L 131.03 331.56 Z" style="fill: rgb(83, 89, 99);"></path>
  <path d="M 150.74 317.91 L 158.56 315.37 L 161.05 329.69 L 150.74 317.91 Z" style="fill: rgb(251, 176, 23);"></path>
  <path d="M 134.82 348.88 L 136.91 342.54 L 147.51 347.77 L 134.82 348.88 Z" style="fill: rgb(251, 176, 23);"></path>
  <path style="fill: rgb(73, 75, 74);" d="M 355.79 312.01 L 366.35 316.54 L 373.89 327.1 L 335.05 339.54 L 355.79 312.01 Z"></path>
  <path style="fill: rgb(73, 75, 74);" d="M 137.07 454.36 L 137.76 465.83 L 145.15 476.5 L 169.99 444.16 L 137.07 454.36 Z"></path>
</svg>