<?xml version="1.0" encoding="UTF-8" standalone="no"?>
<svg xmlns="http://www.w3.org/2000/svg" viewBox="94 150 274 245">
    <path d="M 125.78 212.16 L 318.94 189.71 L 302.06 377.91 L 156.93 394.43 L 125.78 212.16 Z" style="fill: rgb(70, 117, 195);"></path>
    <path d="M 106.29 279.6 L 336.52 250.79 L 337.29 313.04 L 111.86 341.58 L 106.29 279.6 Z" style="fill: rgb(195, 70, 165);"></path>
    <g transform="matrix(1, 0, 0, 1, 6, 0)">
      <path d="M 88.2 198.77 L 97.29 188.29 L 113.36 206.81 L 88.2 198.77 Z" style="fill: rgb(83, 89, 99);"></path>
      <path d="M 107.21 189.07 L 112.6 182.86 L 122.12 193.84 L 107.21 189.07 Z" transform="matrix(0.856772, 0.515696, -0.515696, 0.856772, 113.554566, -32.15522)" style="fill: rgb(83, 89, 99);"></path>
      <path d="M 91.3 213.79 L 95.67 208.75 L 103.43 217.67 L 91.3 213.79 Z" transform="matrix(0.922456, -0.386103, 0.386103, 0.922456, -74.770905, 54.126131)" style="fill: rgb(83, 89, 99);"></path>
    </g>
    <g transform="matrix(0.957812, 0.287397, -0.287397, 0.957812, 108.803513, -87.435875)">
      <path d="M 342.84 329.93 L 351.93 319.45 L 368 337.97 L 342.84 329.93 Z" transform="matrix(-0.979317, 0.20233, -0.20233, -0.979317, 769.996908, 578.709266)" style="fill: rgb(83, 89, 99);"></path>
      <path d="M 336.22 341.24 L 341.61 335.03 L 351.13 346.01 L 336.22 341.24 Z" transform="matrix(-0.943393, -0.331678, 0.331678, -0.943393, 554.952548, 775.753482)" style="fill: rgb(83, 89, 99);"></path>
      <path d="M 349.53 313.27 L 353.9 308.23 L 361.66 317.15 L 349.53 313.27 Z" transform="matrix(-0.825256, 0.564759, -0.564759, -0.825256, 825.646358, 369.913811)" style="fill: rgb(83, 89, 99);"></path>
    </g>
    <text transform="matrix(0.993156, -0.116799, 0.116799, 0.993156, -2.83366, 35.953018)" style="fill: rgb(255, 255, 255); font-size: 42px; font-style: italic; font-weight: bold; stroke: rgb(255, 255, 255); text-anchor: middle; white-space: pre;" x="200.5" y="237.17">FIRST</text>
    <text transform="matrix(0.993156, -0.116799, 0.116799, 0.993156, -5.83366, 99.953018)" style="fill: rgb(255, 255, 255); font-size: 42px; font-style: italic; font-weight: bold; stroke: rgb(255, 255, 255); text-anchor: middle; white-space: pre;" x="200.5" y="237.17">SEASON</text>
    <text transform="matrix(0.993156, -0.116799, 0.116799, 0.993156, 3.16634, 158.953018)" style="fill: rgb(255, 255, 255); font-size: 42px; font-style: italic; font-weight: bold; stroke: rgb(255, 255, 255); text-anchor: middle; white-space: pre;" x="200.5" y="237.17">FREE</text>

<g>
  <path d="M 332.83 150.92 L 362.05 186.13 L 329.78 198.8 L 314.18 179.67 L 332.83 150.92 Z" style="fill: rgb(222, 162, 28);"></path>
  <path d="M 327.78 199.97 L 312.41 181.43 L 301.03 191.41 C 296.36 195.61 297.71 202.86 301.14 207.25 C 304.57 211.64 311.26 213.06 315.7 209.71 L 327.78 199.97 Z" style="fill: rgb(222, 162, 28);"></path>
  <path d="M 345.38 162.66 L 352.78 171.69 C 352.78 171.69 356.33 167.53 353.24 163.48 C 350.15 159.43 345.17 162.23 345.38 162.66 Z" style="fill: rgb(222, 162, 28);"></path>
  <path d="M 350.55 159.61 C 354.37 159.86 356.87 163.39 356.42 166.89" style="fill: none; stroke: rgb(222, 162, 28);"></path>
  <path d="M 351.19 157.49 C 356.18 157.82 359.45 162.43 358.86 167" style="fill: none; stroke: rgb(222, 162, 28);"></path>
  <path d="M 351.51 154.91 C 357.85 155.33 362.01 161.19 361.26 167" style="fill: none; stroke: rgb(222, 162, 28);"></path>
  <path d="M 326.02 203.96 L 328.37 207.36 L 321.92 210.06 L 320.51 208.42 L 326.02 203.96 Z" style="fill: rgb(222, 162, 28);"></path>
  <path d="M 297.85 205.34 C 297.45 206.94 297.03 208.13 298.39 209.72 C 299.74 211.3 301.63 211.32 302.31 211.22 C 299.97 209.23 298.86 207.98 297.85 205.34 Z" style="fill: rgb(222, 162, 28);"></path>
</g>
</svg>