<svg width="244px" height="280px" viewBox="10 0 244 280" version="1.1" xmlns="http://www.w3.org/2000/svg" xmlns:xlink="http://www.w3.org/1999/xlink"><defs><circle id="react-path-947" cx="120" cy="120" r="120"></circle><path d="M12,160 C12,226.27 65.72,280 132,280 C198.27,280 252,226.27 252,160 L264,160 L264,-1.42e-14 L-3.19e-14,-1.42e-14 L-3.19e-14,160 L12,160 Z" id="react-path-948"></path><path d="M124,144.61 L124,163 L128,163 L128,163 C167.76,163 200,195.23 200,235 L200,244 L0,244 L0,235 C-4.86e-15,195.23 32.23,163 72,163 L72,163 L76,163 L76,144.61 C58.76,136.42 46.37,119.68 44.30,99.88 C38.48,99.05 34,94.05 34,88 L34,74 C34,68.05 38.32,63.11 44,62.16 L44,56 L44,56 C44,25.07 69.07,5.68e-15 100,0 L100,0 L100,0 C130.92,-5.68e-15 156,25.07 156,56 L156,62.16 C161.67,63.11 166,68.05 166,74 L166,88 C166,94.05 161.51,99.05 155.69,99.88 C153.62,119.68 141.23,136.42 124,144.61 Z" id="react-path-949"></path></defs><g id="Avataaar" stroke="none" stroke-width="1" fill="none" fill-rule="evenodd"><g transform="translate(-825.00, -1100.00)" id="Avataaar/Circle"><g transform="translate(825.00, 1100.00)"><g id="Mask"></g><g id="Avataaar" stroke-width="1" fill-rule="evenodd" mask="url(#react-mask-951)"><g id="Body" transform="translate(32.00, 36.00)"><mask id="react-mask-952" fill="white"><use xlink:href="#react-path-949"></use></mask><use fill="#D0C6AC" xlink:href="#react-path-949"></use><g id="Skin/👶🏽-03-Brown" mask="url(#react-mask-952)" fill="#EDB98A"><g transform="translate(0.00, 0.00)" id="Color"><rect x="0" y="0" width="264" height="280"></rect></g></g><path d="M156,79 L156,102 C156,132.92 130.92,158 100,158 C69.07,158 44,132.92 44,102 L44,79 L44,94 C44,124.92 69.07,150 100,150 C130.92,150 156,124.92 156,94 L156,79 Z" id="Neck-Shadow" fill-opacity="0.10" fill="#000000" mask="url(#react-mask-952)"></path></g><g id="Clothing/Hoodie" transform="translate(0.00, 170.00)"><defs><path d="M108,13.07 C90.08,15.07 76.27,20.55 76.00,34.64 C50.14,45.56 32,71.16 32,100.99 L32,100.99 L32,110 L232,110 L232,100.99 C232,71.16 213.85,45.56 187.99,34.64 C187.72,20.55 173.91,15.07 156,13.07 L156,32 L156,32 C156,45.25 145.25,56 132,56 L132,56 C118.74,56 108,45.25 108,32 L108,13.07 Z" id="react-path-953"></path></defs><mask id="react-mask-954" fill="white"><use xlink:href="#react-path-953"></use></mask><use id="Hoodie" fill="#B7C1DB" fill-rule="evenodd" xlink:href="#react-path-953"></use><g id="Color/Palette/Gray-01" mask="url(#react-mask-954)" fill-rule="evenodd" fill="#d1e625"><rect id="🖍Color" x="0" y="0" width="264" height="110"></rect></g><path d="M102,61.73 L102,110 L95,110 L95,58.15 C97.20,59.46 99.54,60.66 102,61.73 Z M169,58.15 L169,98.5 C169,100.43 167.43,102 165.5,102 C163.56,102 162,100.43 162,98.5 L162,61.73 C164.45,60.66 166.79,59.46 169,58.15 Z" id="Straps" fill="#F4F4F4" fill-rule="evenodd" mask="url(#react-mask-954)"></path><path d="M90.96,12.72 C75.90,15.57 65.5,21.24 65.5,32.30 C65.5,52.02 98.53,68 132,68 C165.46,68 198.5,52.02 198.5,32.30 C198.5,21.24 188.09,15.57 173.03,12.72 C182.12,16.07 188,21.70 188,31.07 C188,51.46 160.17,68 132,68 C103.82,68 76,51.46 76,31.07 C76,21.70 81.87,16.07 90.96,12.72 Z" id="Shadow" fill-opacity="0.16" fill="#000000" fill-rule="evenodd" mask="url(#react-mask-954)"></path></g><g id="Face" transform="translate(76.00, 82.00)" fill="#000000"><g id="Mouth/Twinkle" transform="translate(2.00, 52.00)" fill-opacity="0.59" fill-rule="nonzero" fill="#000000"><path d="M40,16 C40,21.37 46.15,25 54,25 C61.84,25 68,21.37 68,16 C68,14.89 67.05,14 66,14 C64.70,14 64.13,14.90 64,16 C62.75,18.93 59.68,20.71 54,21 C48.31,20.71 45.24,18.93 44,16 C43.86,14.90 43.29,14 42,14 C40.94,14 40,14.89 40,16 Z" id="Mouth"></path></g><g id="Nose/Default" transform="translate(28.00, 40.00)" fill-opacity="0.16"><path d="M16,8 C16,12.41 21.37,16 28,16 L28,16 C34.62,16 40,12.41 40,8" id="Nose"></path></g><g id="Eyes/Default-😀" transform="translate(0.00, 8.00)" fill-opacity="0.59"><circle id="Eye" cx="30" cy="22" r="6"></circle><circle id="Eye" cx="82" cy="22" r="6"></circle></g><g id="Eyebrow/Outline/Default" fill-opacity="0.59"><g id="I-Browse" transform="translate(12.00, 6.00)"><path d="M3.63,11.15 C7.54,5.64 18.27,2.56 27.52,4.83 C28.59,5.09 29.67,4.43 29.94,3.36 C30.20,2.29 29.54,1.21 28.47,0.94 C17.74,-1.69 5.31,1.88 0.36,8.84 C-0.27,9.74 -0.05,10.99 0.84,11.63 C1.74,12.27 2.99,12.05 3.63,11.15 Z" id="Eyebrow" fill-rule="nonzero"></path><path d="M61.63,11.15 C65.54,5.64 76.27,2.56 85.52,4.83 C86.59,5.09 87.67,4.43 87.94,3.36 C88.20,2.29 87.54,1.21 86.47,0.94 C75.74,-1.69 63.31,1.88 58.36,8.84 C57.72,9.74 57.94,10.99 58.84,11.63 C59.74,12.27 60.99,12.05 61.63,11.15 Z" id="Eyebrow" fill-rule="nonzero" transform="translate(73.00, 6.03) scale(-1, 1) translate(-73.00, -6.03) "></path></g></g></g><g id="Top" stroke-width="1" fill-rule="evenodd"><defs><rect id="react-path-959" x="0" y="0" width="264" height="280"></rect><path d="M180.14,39.92 C177.39,37.10 174.18,34.70 171.06,32.30 C170.38,31.77 169.68,31.26 169.01,30.71 C168.85,30.58 167.29,29.46 167.10,29.05 C166.65,28.06 166.91,28.83 166.97,27.64 C167.05,26.15 170.11,21.91 167.83,20.94 C166.82,20.52 165.03,21.65 164.07,22.03 C162.19,22.76 160.29,23.39 158.34,23.93 C159.27,22.07 161.05,18.35 157.71,19.35 C155.11,20.12 152.69,22.12 150.07,23.05 C150.94,21.64 154.39,17.24 151.27,17.00 C150.30,16.92 147.47,18.75 146.42,19.13 C143.28,20.30 140.08,21.05 136.78,21.65 C125.59,23.67 112.49,23.09 102.13,28.19 C94.14,32.12 86.26,38.22 81.64,45.98 C77.20,53.47 75.53,61.66 74.60,70.24 C73.92,76.53 73.86,83.04 74.18,89.35 C74.29,91.42 74.52,100.97 77.53,98.08 C79.03,96.64 79.01,90.82 79.39,88.86 C80.14,84.94 80.87,81.01 82.12,77.22 C84.32,70.54 86.93,63.42 92.42,58.82 C95.95,55.87 98.43,51.88 101.80,48.91 C103.32,47.57 102.16,47.71 104.60,47.88 C106.24,48.00 107.88,48.05 109.52,48.09 C113.32,48.19 117.12,48.16 120.92,48.18 C128.56,48.20 136.17,48.31 143.81,47.91 C147.21,47.73 150.61,47.64 154.00,47.32 C155.89,47.15 159.25,45.94 160.80,46.86 C162.23,47.71 163.71,50.48 164.73,51.61 C167.15,54.29 170.03,56.33 172.86,58.53 C178.75,63.11 181.73,68.86 183.52,76.02 C185.30,83.15 184.80,89.76 187.01,96.78 C187.40,98.01 188.42,100.14 189.69,98.23 C189.93,97.88 189.86,95.93 189.86,94.81 C189.86,90.29 191.01,86.90 190.99,82.35 C190.94,68.52 190.49,50.49 180.14,39.92 Z" id="react-path-958"></path><filter x="-0.8%" y="-2.0%" width="101.5%" height="108.0%" filterUnits="objectBoundingBox" id="react-filter-955"><feOffset dx="0" dy="2" in="SourceAlpha" result="shadowOffsetOuter1"></feOffset><feColorMatrix values="0 0 0 0 0   0 0 0 0 0   0 0 0 0 0  0 0 0 0.16 0" type="matrix" in="shadowOffsetOuter1" result="shadowMatrixOuter1"></feColorMatrix><feMerge><feMergeNode in="shadowMatrixOuter1"></feMergeNode><feMergeNode in="SourceGraphic"></feMergeNode></feMerge></filter></defs><mask id="react-mask-957" fill="white"><use xlink:href="#react-path-959"></use></mask><g id="Mask"></g><g id="Top/Short-Hair/Short-Flat" mask="url(#react-mask-957)"><g transform="translate(-1.00, 0.00)"><mask id="react-mask-956" fill="white"><use xlink:href="#react-path-958"></use></mask><use id="Short-Hair" stroke="none" fill="#1F3140" fill-rule="evenodd" xlink:href="#react-path-958"></use><g id="Skin/👶🏽-03-Brown" mask="url(#react-mask-956)" fill="#724133"><g transform="translate(0.00, 0.00) " id="Color"><rect x="0" y="0" width="264" height="280"></rect></g></g><g id="Top/_Resources/Wayfarers" fill="none" transform="translate(62.00, 85.00)" stroke-width="1"><defs><filter x="-0.8%" y="-2.4%" width="101.6%" height="109.8%" filterUnits="objectBoundingBox" id="react-filter-962"><feOffset dx="0" dy="2" in="SourceAlpha" result="shadowOffsetOuter1"></feOffset><feColorMatrix values="0 0 0 0 0   0 0 0 0 0   0 0 0 0 0  0 0 0 0.2 0" type="matrix" in="shadowOffsetOuter1" result="shadowMatrixOuter1"></feColorMatrix><feMerge><feMergeNode in="shadowMatrixOuter1"></feMergeNode><feMergeNode in="SourceGraphic"></feMergeNode></feMerge></filter><linearGradient x1="50%" y1="0%" x2="50%" y2="100%" id="react-linear-gradient-963"><stop stop-color="#FFFFFF" stop-opacity="0.5" offset="0%"></stop><stop stop-color="#000000" stop-opacity="0.5" offset="70.50%"></stop></linearGradient><path d="M44.91,17.57 C44.91,27.27 36.66,35.14 22.92,35.14 L20.17,35.14 C6.42,35.14 0.92,27.27 0.92,17.57 L0.92,17.57 C0.92,7.86 2.20,0 21.45,0 L24.38,0 C43.63,0 44.91,7.86 44.91,17.57 L44.91,17.57 Z" id="react-path-960"></path><path d="M106.48,17.57 C106.48,27.27 98.23,35.14 84.48,35.14 L81.73,35.14 C67.99,35.14 62.49,27.27 62.49,17.57 L62.49,17.57 C62.49,7.86 63.77,0 83.02,0 L85.95,0 C105.199,0 106.48,7.86 106.48,17.57 L106.48,17.57 Z" id="react-path-961"></path></defs><g id="Wayfarers" filter="url(#react-filter-962)" transform="translate(7.00, 7.00)"><g id="Shades" transform="translate(10.79, 2.92)" fill-rule="nonzero"><g id="Shade"><use fill-opacity="0.70" fill="#000000" fill-rule="evenodd" xlink:href="#react-path-960"></use><use fill="url(#react-linear-gradient-963)" fill-rule="evenodd" xlink:href="#react-path-960" style="mix-blend-mode: screen;"></use></g><g id="Shade"><use fill-opacity="0.70" fill="#000000" fill-rule="evenodd" xlink:href="#react-path-961"></use><use fill="url(#react-linear-gradient-963)" fill-rule="evenodd" xlink:href="#react-path-961" style="mix-blend-mode: screen;"></use></g></g><path d="M33.71,41 L30.96,41 C17.07,41 8.78,33.33 8.78,20.5 C8.78,10.127 10.59,0 32.25,0 L35.18,0 C56.83,0 58.64,10.127 58.64,20.5 C58.64,32.56 48.39,41 33.71,41 Z M32.25,5.85 C14.65,5.85 14.65,12.31 14.65,20.5 C14.65,27.18 17.47,35.14 30.96,35.14 L33.71,35.14 C44.94,35.14 52.78,29.12 52.78,20.5 C52.78,12.31 52.78,5.85 35.18,5.85 L32.25,5.85 Z" id="Left" fill="#252C2F" fill-rule="nonzero"></path><path d="M95.28,41 L92.53,41 C78.64,41 70.35,33.33 70.35,20.5 C70.35,10.127 72.16,0 93.81,0 L96.75,0 C118.40,0 120.21,10.127 120.21,20.5 C120.21,32.56 109.96,41 95.28,41 Z M93.81,5.85 C76.21,5.85 76.21,12.31 76.21,20.5 C76.21,27.18 79.05,35.14 92.53,35.14 L95.28,35.14 C106.51,35.14 114.34,29.12 114.34,20.5 C114.34,12.31 114.34,5.85 96.75,5.85 L93.81,5.85 Z" id="Right" fill="#252C2F" fill-rule="nonzero"></path><path d="M2.93,5.85 C3.61,5.17 11.12,0 32.25,0 C49.96,0 53.71,1.88 59.38,4.72 L59.80,4.93 C60.19,5.07 62.21,5.77 64.57,5.85 C66.72,5.75 68.56,5.16 69.10,4.96 C75.58,1.74 81.92,0 96.75,0 C117.87,0 125.38,5.17 126.06,5.85 C127.68,5.85 129,7.16 129,8.78 L129,11.71 C129,13.33 127.68,14.64 126.06,14.64 C126.06,14.64 120.20,14.64 120.20,17.57 C120.20,20.5 117.27,13.33 117.27,11.71 L117.27,8.86 C113.69,7.46 107.29,5.85 96.75,5.85 C84.99,5.85 79.14,6.98 74.12,9.10 L74.18,9.24 L71.68,10.25 L74.18,11.25 L71.98,16.68 L69.26,15.58 C69.02,15.49 68.49,15.31 67.77,15.13 C65.74,14.62 63.66,14.46 61.82,14.85 C61.14,14.99 60.52,15.20 59.94,15.49 L57.32,16.80 L54.70,11.56 L57.32,10.25 L57.33,10.25 L54.81,9.23 L54.89,9.03 C50.57,6.97 46.57,5.85 32.25,5.85 C21.70,5.85 15.30,7.46 11.72,8.86 L11.72,11.71 C11.72,13.33 8.79,20.5 8.79,17.57 C8.79,14.64 2.93,14.64 2.93,14.64 C1.31,14.64 0,13.33 0,11.71 L0,8.78 C0,7.16 1.31,5.85 2.93,5.85 Z" id="Stuff" fill="#252C2F" fill-rule="nonzero"></path></g></g></g></g></g></g></g></g></g></svg>