<?xml version="1.0" encoding="utf-8"?>
<!-- Svg Vector Icons : http://www.onlinewebfonts.com/icon -->
<!DOCTYPE svg PUBLIC "-//W3C//DTD SVG 1.1//EN" "http://www.w3.org/Graphics/SVG/1.1/DTD/svg11.dtd">
<svg version="1.1" xmlns="http://www.w3.org/2000/svg" xmlns:xlink="http://www.w3.org/1999/xlink" x="0px" y="0px" viewBox="0 0 1000 1000" enable-background="new 0 0 1000 1000" xml:space="preserve">
<metadata> Svg Vector Icons : http://www.onlinewebfonts.com/icon </metadata>
<g><path d="M972.3,432c-6.1,12.7-16.3,22.7-20.4,34.7c-4.6,13.6-5.5,30.1-8.2,44.9c-7.7,41.6-15.7,87-42.8,112c-22.6,20.7-78.4,37.4-118.3,40.8c-142.7,11.5-201.8-59.5-236.2-156.9c-10.4-29.4-14.3-60.2-53-57.1c-31,2.5-32.4,27.8-44.9,65.2c-26.7,80.7-76.6,142.8-179.2,150.7c-60.3,4.6-134.2-7.7-165.1-36.7c-28.6-27-38.9-81.5-48.8-130.4c-3.6-17.9-7.9-25.5-16.3-38.6c-4-6.3-7-11.5-10.2-18.4c-11.3-24.8-26.6-50.6-14.3-85.6c132-21.2,249.8-20.9,368.8,2c38,7.3,76.6,19.5,114.1,20.4c43.8,1.1,96.8-15.8,138.5-24.4c109.2-22.5,228.7-32.3,348.5-6.1C997.2,380.2,985.7,404,972.3,432z" fill="currentColor" /></g>
</svg>