<?xml version="1.0" encoding="utf-8"?>
<svg version="1.1" xmlns="http://www.w3.org/2000/svg" xmlns:xlink="http://www.w3.org/1999/xlink" x="0px" y="0px" viewBox="-50 -50 1100 1100" enable-background="new 0 0 1000 1000" xml:space="preserve">
<metadata> Svg Vector Icons : http://www.onlinewebfonts.com/icon </metadata>
<g><g transform="translate(0.000000,511.000000) scale(0.100000,-0.100000)"><path d="M3403,3292.9c-903.8-162.8-1794.2-848.3-3080.9-2366.7L100,662l47.9-128.3C174.7,460.9,257,261.8,329.8,87.6c769.7-1811.4,1796.1-2722.9,3435.2-3054.1c534.2-107.2,1116.3-155.1,1531.9-124.5C7529.5-2924.4,8772.2-2022.6,9670.2,87.6c72.7,174.2,155.1,373.4,181.9,446.1L9900,662l-222.1,264.2C8450.5,2373.8,7594.6,3055.5,6742.5,3262.3c-239.4,57.4-354.2,67-536.2,42.1c-480.6-63.2-859.8-237.4-1106.8-507.4l-95.7-105.3l-141.7,139.8c-256.6,256.6-597.4,409.8-1055,471C3623.2,3327.4,3594.5,3327.4,3403,3292.9z M3989,1196.2c67-21.1,233.6-103.4,371.5-181.9c277.6-158.9,472.9-235.5,593.6-237.4c124.5,0,312.1,67,647.2,229.8c411.7,201.1,541.9,239.4,787,237.4c331.2-1.9,553.4-67,1072.3-304.5C7998.6,690.7,8274.3,595,8552,554.8l95.7-13.4l-134-46c-191.5-65.1-417.4-178.1-938.3-476.8C6372.9-666.9,5773.6-877.5,5028.7-877.5c-279.6,1.9-360,9.6-570.6,53.6C3876-703.3,3435.6-513.7,2478.2,24.4c-513.2,289.1-723.8,394.4-905.7,459.5l-149.4,51.7l193.4,44c268.1,61.3,459.6,126.4,750.6,258.5c137.9,63.2,346.6,157,465.3,208.7C3290.1,1246,3686.4,1297.7,3989,1196.2z" fill="currentColor" /></g></g>
</svg>