<?xml version="1.0" encoding="iso-8859-1"?>
<svg version="1.1" xmlns="http://www.w3.org/2000/svg" xmlns:xlink="http://www.w3.org/1999/xlink" x="0px" y="0px" viewBox="0 0 1000 1000" enable-background="new 0 0 1000 1000" xml:space="preserve">
<metadata> Svg Vector Icons : http://www.onlinewebfonts.com/icon </metadata>
<g><g transform="translate(0.000000,511.000000) scale(0.100000,-0.100000)"><path d="M3375.5,1712.2c-373-79.6-593.7-211.5-1355.7-809.8c-288.9-227.5-520.9-370.8-702.9-429.9c-270.7-91-673.3-25-946.3,157c-177.4,116-227.5,129.7-259.3,72.8c-29.6-56.9-2.3-188.8,91-423.1C696-962.8,1596.7-1577,2838.7-1522.4c875.7,38.7,1590,382.2,2088.1,1005.4l72.8,91l75.1-91c252.5-307.1,536.8-536.8,868.9-702.9c384.4-191.1,748.3-282.1,1221.5-302.5c1244.2-54.6,2156.4,571,2638.6,1810.6c84.2,216.1,113.7,363.9,86.5,418.5c-29.6,52.3-81.9,36.4-257.1-77.3c-168.3-111.5-384.4-179.7-616.4-195.6c-316.2-18.2-548.2,84.2-1023.6,461.8c-439,343.5-691.5,527.7-846.2,614.2c-693.8,389-1412.6,288.9-2013.1-282.1l-131.9-125.1l-141,134.2C4405.9,1655.3,3885,1823.7,3375.5,1712.2z" fill="currentColor" /></g></g>
</svg>