<svg width="24px" height="24px" viewBox="0 0 24 24" version="1.1" xmlns="http://www.w3.org/2000/svg">
    <path d="M 22 12 C 22 17.523 17.523 22 12 22 C 6.477 22 2 17.523 2 12 C 2 6.477 6.477 2 12 2 C 17.523 2 22 6.477 22 12 Z M 15.381 17.877 C 15.541 17.962 15.726 17.991 15.906 17.961 C 16.356 17.883 16.659 17.454 16.582 17.005 L 15.936 13.241 L 18.672 10.574 C 18.801 10.448 18.886 10.281 18.912 10.101 C 18.978 9.648 18.665 9.228 18.212 9.162 L 14.433 8.614 L 12.743 5.188 C 12.661 5.025 12.53 4.893 12.366 4.813 C 11.957 4.61 11.461 4.779 11.257 5.188 L 9.567 8.614 L 5.788 9.162 C 5.607 9.188 5.441 9.274 5.314 9.403 C 4.996 9.731 5.002 10.256 5.328 10.574 L 8.064 13.241 L 7.418 17.005 C 7.387 17.184 7.417 17.368 7.502 17.529 C 7.714 17.935 8.216 18.09 8.619 17.877 L 12 16.099 Z" fill="currentColor" opacity="0.6"></path>
</svg>