<svg xmlns="http://www.w3.org/2000/svg" viewBox="150.59 102.55 278.98 28.12">
  <path fill="hsl(62, 68%, 57%)" d="M167.18 111.66c0-4.77-2.42-8.26-8.58-8.26h-5.73a2.3 2.3 0 0 0-2.28 2.28v22.6a2.28 2.28 0 1 0 4.56 0v-8.25h3.91l3.49 9.04a2.26 2.26 0 0 0 2.17 1.53c1.39 0 2.31-1.1 2.31-2.28 0-.35-.14-.71-.25-1l-3.41-8.25c2.6-1.36 3.8-4.03 3.8-7.4Zm-9.4-4.27c3.52 0 4.77 1.21 4.77 4.41 0 2.64-.9 4.31-4.56 4.31h-2.85v-8.72Zm12.81 21.07c0 1.22.96 2.21 2.17 2.21 1.25 0 2.24-1 2.24-2.2v-15.74c0-1.21-1-2.24-2.24-2.24a2.22 2.22 0 0 0-2.17 2.24Zm0-22.64c0 1.28.89 2.28 2.17 2.28 1.32 0 2.24-1 2.24-2.28v-1.06c0-1.25-.96-2.21-2.24-2.21-1.25 0-2.17 1-2.17 2.2Zm22.29 7.55c.1-.25.1-.53.1-.82a2.1 2.1 0 0 0-2.13-2.06c-1.07 0-1.82.78-2.07 1.74l-3.34 13.03-3.6-13.07c-.28-1.03-1.07-1.7-2.1-1.7-1.17 0-2.1.92-2.14 2.13 0 .29.04.57.15.86l4.8 15.06c.47 1.31 1.14 2.13 2.89 2.13 1.35 0 2.28-.71 2.7-2.1Zm11.5 15.1c0 1.2.96 2.2 2.2 2.2 1.25 0 2.2-1 2.2-2.2v-10.33c0-5.13-1.8-7.65-7.18-7.65-2.17 0-4.28.57-5.66 1.5-.6.38-1.03.95-1.03 1.7 0 1.1.78 1.82 1.81 1.82.21 0 .4-.08.57-.15.89-.32 1.85-.85 3.42-.85 3.06 0 3.66 1.32 3.66 4.3v.15h-2.8c-4.88 0-7.23 2-7.23 6.05 0 3.17 1.67 5.66 5.44 5.66 2.25 0 3.7-.89 4.6-2.45Zm0-4.63c-.11 2.45-1.64 3.45-3.39 3.45-1.67 0-2.35-.93-2.35-2.46 0-2.03.82-2.77 3.39-2.77.03 0 1.42.03 2.34.03Zm8.25 1.63c0 3.7 1.5 5.2 4.63 5.2.43 0 1-.03 1.39-.14 1.06-.21 1.7-.96 1.7-2 0-1.1-.67-1.67-1.49-1.7-.14-.04-.46 0-.64 0-.85-.04-1.14-.68-1.14-2.42v-19.16a2.23 2.23 0 1 0-4.45 0Zm29.73-18.05c1.1 0 2.03-.92 2.03-1.99 0-1.14-.93-2.03-2.03-2.03h-13.03a2.01 2.01 0 0 0 0 4.02h4.34v20.9c0 1.25 1 2.28 2.28 2.28a2.3 2.3 0 0 0 2.28-2.28v-20.9Zm14.66 22.18c.61-.32 1.1-.89 1.1-1.81 0-1.21-1.02-1.75-1.99-1.57-1.06.25-2.49.75-3.8.75-2.89 0-4.28-1.35-4.28-4.52v-.18h8.55c1.03 0 1.81-.75 1.81-1.78v-1.78c0-5.34-2.49-8.22-7.4-8.22-5.02 0-7.37 3.13-7.37 8.4v3.38c0 5.63 2.5 8.4 8.15 8.4 1.85 0 3.99-.39 5.23-1.07Zm-8.97-10.96c0-3.17.93-4.6 2.96-4.6s2.92 1.29 2.95 4.31v.79h-5.9Zm24.07 9.82c0 1.22.96 2.21 2.2 2.21 1.22 0 2.21-1 2.21-2.2v-10.9c0-4.63-1.67-7.08-5.51-7.08-2.28 0-3.88.92-4.92 2.49v-.25c0-1.21-1-2.24-2.24-2.24a2.22 2.22 0 0 0-2.17 2.24v15.73c0 1.22.96 2.21 2.17 2.21 1.25 0 2.24-1 2.24-2.2v-10.4c.07-2.5 1.32-3.6 3.13-3.6 1.82 0 2.89 1.1 2.89 3.88Zm18.76 0c0 1.22.96 2.21 2.2 2.21 1.22 0 2.21-1 2.21-2.2v-10.9c0-4.63-1.67-7.08-5.51-7.08-2.28 0-3.88.92-4.92 2.49v-.25c0-1.21-1-2.24-2.24-2.24a2.22 2.22 0 0 0-2.17 2.24v15.73c0 1.22.96 2.21 2.17 2.21 1.25 0 2.24-1 2.24-2.2v-10.4c.07-2.5 1.32-3.6 3.14-3.6 1.81 0 2.88 1.1 2.88 3.88Zm8.33 0c0 1.22.96 2.21 2.17 2.21 1.24 0 2.24-1 2.24-2.2v-15.74c0-1.21-1-2.24-2.24-2.24a2.22 2.22 0 0 0-2.17 2.24Zm0-22.64c0 1.28.89 2.28 2.17 2.28 1.31 0 2.24-1 2.24-2.28v-1.06c0-1.25-.96-2.21-2.24-2.21-1.25 0-2.17 1-2.17 2.2Zm13.6 21.22c-1.5 0-2.74-.68-3.85-.78-1.07-.11-2.1.32-2.1 1.6 0 .78.4 1.35 1 1.7 1.07.72 3.13 1.11 4.91 1.11 3.88 0 7.37-1.67 7.37-6.48 0-3.49-2-4.91-4.95-5.44l-1.78-.25c-1.42-.25-2.35-.6-2.35-2.1s1-2.32 3.06-2.32c1.5 0 2.43.54 3.5.71 1.2.18 2.06-.46 2.06-1.63 0-.79-.5-1.36-1.1-1.71-1.07-.6-3.03-.96-4.63-.96-3.63 0-7.05 1.56-7.05 6.23 0 3.7 2.35 4.95 4.8 5.4l1.78.3c1.4.24 2.46.63 2.46 2.3 0 1.64-1.18 2.32-3.13 2.32Zm18.4.96a2.3 2.3 0 0 0 2.28 2.28l.35-.14-.03.14h9.22c1.1 0 2-.93 2-2 0-1.1-.9-1.99-2-1.99h-7.26v-20.97a2.28 2.28 0 1 0-4.56 0Zm25.1.46c0 1.22.96 2.21 2.2 2.21 1.25 0 2.21-1 2.21-2.2v-10.33c0-5.13-1.82-7.65-7.2-7.65-2.16 0-4.26.57-5.65 1.5-.6.38-1.03.95-1.03 1.7 0 1.1.78 1.82 1.81 1.82.22 0 .4-.08.57-.15.9-.32 1.85-.85 3.42-.85 3.06 0 3.67 1.32 3.67 4.3v.15h-2.82c-4.87 0-7.22 2-7.22 6.05 0 3.17 1.67 5.66 5.44 5.66 2.25 0 3.7-.89 4.6-2.45Zm0-4.62c-.11 2.45-1.64 3.45-3.39 3.45-1.67 0-2.35-.93-2.35-2.46 0-2.03.82-2.77 3.39-2.77.03 0 1.42.03 2.35.03Zm18.58 4.62c0 1.22.96 2.21 2.2 2.21 1.22 0 2.21-1 2.21-2.2v-23.22a2.2 2.2 0 1 0-4.41 0v7.55a4.71 4.71 0 0 0-4.34-2.31c-4.35 0-6.45 2.99-6.45 8.33v3.56c0 5.3 1.85 8.3 6.3 8.3 2.14 0 3.56-.9 4.49-2.47Zm0-5.73c0 2.7-1.25 4.31-3.27 4.31-2 0-3.03-1.39-3.03-4.38v-4.13c0-2.95 1.03-4.34 3.06-4.34 1.78 0 3.17 1.32 3.24 4.13Zm18.72 5.73c0 1.22.96 2.21 2.21 2.21 1.21 0 2.2-1 2.2-2.2v-23.22a2.2 2.2 0 1 0-4.41 0v7.55a4.71 4.71 0 0 0-4.34-2.31c-4.34 0-6.44 2.99-6.44 8.33v3.56c0 5.3 1.85 8.3 6.3 8.3 2.13 0 3.56-.9 4.48-2.47Zm0-5.73c0 2.7-1.24 4.31-3.27 4.31-2 0-3.03-1.39-3.03-4.38v-4.13c0-2.95 1.03-4.34 3.06-4.34 1.78 0 3.17 1.32 3.24 4.13Zm21.29 6.87c.6-.32 1.1-.89 1.1-1.81 0-1.21-1.03-1.75-2-1.57-1.06.25-2.48.75-3.8.75-2.88 0-4.27-1.35-4.27-4.52v-.18h8.54c1.03 0 1.82-.75 1.82-1.78v-1.78c0-5.34-2.5-8.22-7.4-8.22-5.03 0-7.38 3.13-7.38 8.4v3.38c0 5.63 2.5 8.4 8.16 8.4 1.85 0 3.98-.39 5.23-1.07Zm-8.97-10.96c0-3.17.92-4.6 2.95-4.6 2.03 0 2.92 1.29 2.96 4.31v.79h-5.91Zm13.63 9.82c0 1.22.96 2.21 2.17 2.21 1.25 0 2.25-1 2.25-2.2v-8.4c.07-3.07 1.42-4.74 3.27-4.88 1.36-.15 2.32-.61 2.32-2.46 0-1.42-.72-2.14-1.9-2.14-1.6 0-2.84 1.32-3.7 3.1v-.96c0-1.21-.99-2.24-2.24-2.24a2.22 2.22 0 0 0-2.17 2.24Z"/>
</svg>