<svg width="24" height="24" viewBox="0 0 24 24" fill="none" xmlns="http://www.w3.org/2000/svg">
<path d="M14 18V16H10V18L9 20H15L14 18Z" opacity="0.8" fill="black"/>
<path opacity="0.4" d="M 20 4 L 17 4 L 17 3 C 17 2.4 16.6 2 16 2 L 8 2 C 7.4 2 7 2.4 7 3 L 7 4 L 4 4 C 3.4 4 3 4.4 3 5 L 3 9 C 3 11.2 4.8 13 7 13 C 8.2 14.2 8.8 14.8 10 16 L 14 16 C 15.2 14.8 15.8 14.2 17 13 C 19.2 13 21 11.2 21 9 L 21 5 C 21 4.4 20.6 4 20 4 Z M 5 9 L 5 6 L 7 6 L 7 11 C 5.9 11 5 10.1 5 9 Z M 19 9 C 19 10.1 18.1 11 17 11 L 17 6 L 19 6 L 19 9 Z M 17 21 L 17 22 L 7 22 L 7 21 C 7 20.4 7.4 20 8 20 L 16 20 C 16.6 20 17 20.4 17 21 Z" fill="black"/>
</svg>
