<svg viewBox="-846.08 889.85 373.64 373.64">
  <path fill="currentColor" d="M-694.79 1076.67c0 22.11-4.94 45.35-13.02 64.45a171.83 171.83 0 0 1-33.41 50.51c8.22 5.9 17.06 10.8 27.06 15.03 17.61 7.46 34.65 11.08 54.9 11.08s37.29-3.62 54.9-11.08a137.24 137.24 0 0 0 27.73-15.5 171.93 171.93 0 0 1-32.96-50.03 170.78 170.78 0 0 1-13.01-64.45c0-22.11 4.94-45.35 13.01-64.45a171.9 171.9 0 0 1 32.96-50.04 137.34 137.34 0 0 0-27.73-15.51c-17.61-7.45-34.65-11.08-54.9-11.08s-37.29 3.63-54.9 11.08c-10 4.23-18.85 9.13-27.06 15.03a171.88 171.88 0 0 1 33.41 50.51 170.78 170.78 0 0 1 13.02 64.45Zm-53.54-47.31a116.04 116.04 0 0 0-24.29-36.84 136.52 136.52 0 0 0-16.63 29.25c-7.46 17.61-11.08 34.65-11.08 54.9 0 20.26 3.62 37.29 11.08 54.91 4.6 10.89 10 20.4 16.63 29.24a116.06 116.06 0 0 0 24.29-36.84c6.45-15.26 9.54-29.78 9.54-47.31s-3.09-32.05-9.54-47.31Zm169.73 47.32c0 17.53 3.09 32.05 9.53 47.3a115.91 115.91 0 0 0 23.66 36.18 136.9 136.9 0 0 0 16.14-28.58c7.46-17.62 11.08-34.65 11.08-54.91 0-20.25-3.62-37.29-11.08-54.9a136.85 136.85 0 0 0-16.14-28.58 115.93 115.93 0 0 0-23.66 36.18c-6.44 15.26-9.53 29.78-9.53 47.3Zm106.02-.01c0 25-5.54 51.08-14.67 72.68a193.32 193.32 0 0 1-40 59.33 193.24 193.24 0 0 1-59.34 40 192.12 192.12 0 0 1-72.67 14.68c-25 0-51.08-5.55-72.68-14.68a193.32 193.32 0 0 1-59.33-40 193.32 193.32 0 0 1-40-59.33 192.21 192.21 0 0 1-14.68-72.68c0-25 5.55-51.08 14.68-72.67a193.2 193.2 0 0 1 40-59.34 193.03 193.03 0 0 1 59.33-40A192.16 192.16 0 0 1-659.26 890c25 0 51.08 5.54 72.67 14.68 21.66 9.16 43 23.66 59.34 40a193.2 193.2 0 0 1 40 59.33 192.12 192.12 0 0 1 14.67 72.67Z"/>
</svg>