<?xml version="1.0" encoding="iso-8859-1"?>
<svg version="1.1" xmlns="http://www.w3.org/2000/svg" xmlns:xlink="http://www.w3.org/1999/xlink" x="0px" y="0px" viewBox="-50 -50 1100 1100" enable-background="new 0 0 1000 1000" xml:space="preserve">
<metadata> Svg Vector Icons : http://www.onlinewebfonts.com/icon </metadata>
<g transform="translate(0.000000,511.000000) scale(0.100000,-0.100000)"><path d="M2361.7,3989.8c-103.6-46-2081.1-1533.2-2157.1-1623C131,2277,87.2,2129.7,103.3,2016.9c13.8-108.2,1033.7-2150.2,1116.5-2240c34.5-36.8,103.6-85.2,154.2-108.2c145-66.7,253.2-55.2,469.6,48.4c103.6,50.7,193.4,92.1,198,92.1c6.9,0,13.8-732.1,16.1-1627.6c6.9-1618.4,6.9-1629.9,57.6-1722c62.1-115.1,133.5-184.2,241.7-230.2c76-29.9,386.8-34.5,2642.9-34.5s2566.9,4.6,2642.9,34.5c108.2,46,179.6,115.1,241.7,230.2c50.6,92.1,50.6,103.6,57.5,1722c2.3,897.8,13.8,1627.6,23,1623c9.2-4.6,89.8-41.4,177.3-85.2c193.4-92.1,290.1-108.2,423.6-71.4c198,52.9,234.8,110.5,798.8,1240.8c285.5,575.5,524.9,1082,531.8,1128.1c16.1,115.1-27.6,262.5-101.3,349.9c-80.6,94.4-2058.1,1579.3-2161.7,1623C7520.8,4038.2,2469.9,4035.9,2361.7,3989.8z M3538.1,2970c39.1-271.6,69.1-382.1,154.2-559.4c76-156.5,131.2-232.5,280.9-379.9c299.3-299.3,607.8-430.5,1015.2-432.8c260.1-2.3,407.5,32.2,656.1,149.6c156.5,76,232.5,131.2,382.2,280.8c267,267.1,368.3,488.1,435.1,941.6l13.8,85.2h416.7H7309l739-554.8c405.2-303.9,741.3-561.7,745.9-573.2c4.6-9.2-122-278.6-280.9-596.3L8223,753l-326.9,163.4c-317.7,156.5-333.8,163.5-471.9,154.2c-177.3-11.5-310.8-94.4-391.4-246.3l-52.9-101.3v-1781.9v-1779.6H5000H3020.2v1779.6V723.1l-52.9,101.3c-80.6,152-214.1,234.8-391.4,246.3c-138.1,9.2-154.2,2.3-471.9-154.2L1777,753l-290.1,577.8c-158.8,317.7-285.5,587.1-280.9,596.3c4.6,11.5,338.4,269.4,743.6,573.2l736.7,554.8h419h419L3538.1,2970z M5495,2981.5c-27.6-128.9-82.9-223.3-177.3-306.2c-292.4-248.6-729.8-85.2-812.6,306.2l-16.1,73.7H5000h511.1L5495,2981.5z" fill="currentColor" /></g>
</svg>