<?xml version="1.0" encoding="utf-8"?>
<svg version="1.1" xmlns="http://www.w3.org/2000/svg" xmlns:xlink="http://www.w3.org/1999/xlink" x="0px" y="0px" viewBox="-50 -50 1100 1100" enable-background="new 0 0 1000 1000" xml:space="preserve">
<metadata> Svg Vector Icons : http://www.onlinewebfonts.com/icon </metadata>
<g><path d="M500,193.8c-213.7,0-399,124.5-490,306.3c91,181.8,276.3,306.3,490,306.3c213.7,0,399-124.5,490-306.3C899,318.2,713.7,193.8,500,193.8z M741.6,356.2c57.6,36.7,106.4,85.9,143,143.8c-36.6,57.9-85.4,107.1-143,143.8C669.3,690,585.7,714.4,500,714.4c-85.7,0-169.3-24.4-241.6-70.5c-57.6-36.7-106.4-85.9-143-143.8c36.6-57.9,85.4-107.1,143-143.8c3.7-2.4,7.5-4.7,11.3-7c-9.5,26.2-14.7,54.4-14.7,83.8c0,135.3,109.7,245,245,245c135.3,0,245-109.7,245-245c0-29.5-5.2-57.7-14.7-83.8C734.1,351.4,737.9,353.8,741.6,356.2z M500,402.4c0,50.7-41.1,91.9-91.9,91.9s-91.9-41.1-91.9-91.9s41.1-91.9,91.9-91.9S500,351.6,500,402.4z" fill="currentColor"/></g>
</svg>