<?xml version="1.0" encoding="UTF-8"?>
<svg width="24px" height="24px" viewBox="0 0 1024 1024" version="1.1" xmlns="http://www.w3.org/2000/svg" xmlns:xlink="http://www.w3.org/1999/xlink">
    <path d="M512 0c-282.77 0-512 229.23-512 512s229.23 512 512 512 512-229.23 512-512-229.23-512-512-512zM512 832c-35.346 0-64-28.654-64-64s28.654-64 64-64 64 28.654 64 64-28.654 64-64 64zM617.538 504.158c-39.112 24.57-57.538 38.114-57.538 56.092v32c0 26.51-21.49 48-48 48s-48-21.49-48-48v-32c0-33.618 12.964-63.854 38.532-89.87 18.864-19.194 41.778-33.59 63.936-47.512 45.564-28.624 65.532-43.978 65.532-70.868 0-29.252-16.88-48.788-31.042-60.026-22.734-18.040-54.328-27.974-88.958-27.974-52.534 0-99.792 35.082-114.924 85.314-7.648 25.382-34.422 39.758-59.806 32.114-25.382-7.648-39.76-34.422-32.114-59.806 13.112-43.52 40.398-82.63 76.832-110.124 37.71-28.456 82.668-43.498 130.012-43.498 56.208 0 108.994 17.322 148.63 48.776 43.444 34.474 67.37 82.496 67.37 135.224 0 82.76-63.846 122.872-110.462 152.158z" fill="currentColor"></path>
</svg>
