<svg width="24" height="24" viewBox="0 0 24 24" fill="none" xmlns="http://www.w3.org/2000/svg">
<path opacity="0.25" fill-rule="evenodd" clip-rule="evenodd" d="M 6.01 3.084 C 4.405 3.328 3.133 4.505 2.856 6.106 C 2.664 7.221 2.5 8.637 2.5 10.219 C 2.5 11.801 2.664 13.217 2.856 14.333 C 3.094 15.707 4.065 16.768 5.35 17.196 L 5.35 20.43 C 5.35 21.165 6.15 21.621 6.784 21.248 L 12.593 17.814 C 14.696 17.78 16.583 17.568 17.99 17.355 C 19.595 17.11 20.867 15.933 21.144 14.333 C 21.336 13.217 21.5 11.801 21.5 10.219 C 21.5 8.637 21.336 7.221 21.144 6.106 C 20.867 4.505 19.595 3.328 17.99 3.084 C 16.452 2.85 14.341 2.619 12 2.619 C 9.659 2.619 7.548 2.85 6.01 3.084 Z" fill="currentColor"/>
<path fill-rule="evenodd" clip-rule="evenodd" d="M 7.25 7.369 C 6.726 7.369 6.3 7.795 6.3 8.319 C 6.3 8.844 6.726 9.269 7.25 9.269 L 16.75 9.269 C 17.274 9.269 17.7 8.844 17.7 8.319 C 17.7 7.795 17.274 7.369 16.75 7.369 L 7.25 7.369 Z M 7.25 11.169 C 6.726 11.169 6.3 11.595 6.3 12.119 C 6.3 12.644 6.726 13.069 7.25 13.069 L 11.05 13.069 C 11.574 13.069 12 12.644 12 12.119 C 12 11.595 11.574 11.169 11.05 11.169 L 7.25 11.169 Z" fill="currentColor"/>
</svg>
